<svg width="34" height="34" viewBox="0 0 34 34" fill="none" xmlns="http://www.w3.org/2000/svg">
<path d="M19.2835 0.490047C15.2956 -0.0585286 11.2439 0.8543 7.87654 3.05998C4.50917 5.26566 2.05357 8.61522 0.963159 12.4902C-0.127252 16.3651 0.221173 20.5037 1.9441 24.1418C3.66702 27.7799 6.64809 30.6717 10.3368 32.2834C10.2371 31.0031 10.3286 29.715 10.6085 28.4617C10.9168 27.0634 12.7685 19.3567 12.7685 19.3567C12.3998 18.5302 12.2155 17.6333 12.2285 16.7284C12.2285 14.2534 13.6568 12.4067 15.4335 12.4067C15.7527 12.4021 16.0691 12.4662 16.3613 12.5948C16.6535 12.7233 16.9145 12.9133 17.1267 13.1518C17.339 13.3902 17.4973 13.6716 17.5911 13.9767C17.6849 14.2818 17.7118 14.6036 17.6702 14.92C17.6702 16.42 16.7068 18.69 16.2035 20.82C16.104 21.2107 16.0977 21.6192 16.1851 22.0127C16.2724 22.4063 16.451 22.7738 16.7064 23.0856C16.9618 23.3975 17.2869 23.645 17.6555 23.8081C18.0241 23.9713 18.4259 24.0456 18.8285 24.025C21.9918 24.025 24.1118 19.9734 24.1118 15.19C24.1118 11.5234 21.6835 8.77671 17.2068 8.77671C16.1358 8.73509 15.0675 8.91159 14.0667 9.29547C13.066 9.67935 12.1537 10.2626 11.3852 11.0099C10.6168 11.7571 10.0083 12.6527 9.59653 13.6423C9.18481 14.632 8.97851 15.6949 8.99016 16.7667C8.94244 17.9556 9.326 19.1217 10.0702 20.05C10.2092 20.1538 10.3107 20.3 10.3595 20.4666C10.4082 20.6331 10.4014 20.811 10.3402 20.9734C10.2635 21.28 10.0702 22.0117 9.99349 22.28C9.97754 22.371 9.94045 22.457 9.8852 22.5311C9.82994 22.6051 9.75807 22.6651 9.67538 22.7063C9.59268 22.7475 9.50147 22.7687 9.40908 22.7682C9.3167 22.7677 9.22573 22.7455 9.14349 22.7034C6.83683 21.78 5.75016 19.2417 5.75016 16.3434C5.75016 11.5984 9.72349 5.91838 17.6735 5.91838C24.0002 5.91838 28.2068 10.5467 28.2068 15.4967C28.2068 22.0117 24.5785 26.91 19.2168 26.91C18.4155 26.9357 17.6206 26.7588 16.9057 26.3958C16.1908 26.0328 15.579 25.4955 15.1268 24.8334C15.1268 24.8334 14.1635 28.6934 13.9735 29.4234C13.5856 30.6845 13.0133 31.8814 12.2752 32.975C13.8135 33.4417 15.4118 33.675 17.0185 33.6684C19.2078 33.6701 21.3759 33.24 23.3988 32.4027C25.4216 31.5653 27.2594 30.3372 28.8069 28.7886C30.3545 27.24 31.5813 25.4013 32.4173 23.3779C33.2532 21.3545 33.6818 19.186 33.6785 16.9967C33.6764 12.9717 32.2181 9.08337 29.5729 6.04968C26.9276 3.01599 23.2741 1.04182 19.2868 0.491714L19.2835 0.490047Z" fill="#007C67"/>
</svg>
