<svg width="20" height="18" viewBox="0 0 20 18" fill="none" xmlns="http://www.w3.org/2000/svg">
<path d="M19.7525 8.43828L20 7.58946L19.1337 7.61442C19.0594 7.61442 18.5396 7.58946 18.0198 7.21498H18.1436C18.6634 7.21498 19.1832 6.89043 19.3812 6.44105L19.7525 5.6172C19.2822 5.6172 18.8614 5.56727 18.8614 5.56727C18.8614 5.56727 18.5149 5.51734 18.1436 5.11789C17.8713 4.84327 17.5248 4.69348 17.1535 4.69348C16.9802 4.69348 16.8564 4.71845 16.7327 4.76838C16.7574 4.69348 16.7822 4.64355 16.7822 4.56865C16.9059 3.79473 16.4109 3.19556 16.4109 3.19556L15.7673 2.39667L15.3713 3.34535C15.3713 3.34535 15.2723 3.57004 15.099 3.6699C15.0495 3.39528 14.901 3.07074 14.6287 2.77115C14.0842 2.19695 13.4406 2.12205 13.0941 2.12205C12.9455 2.12205 12.8218 2.14702 12.797 2.14702L12.0049 2.29681C12.0545 2.12205 12.1535 1.82247 12.3267 1.54785L12.7475 0.873786L11.6337 0.998613L11.2871 0.249653L10.6188 0.599168L10 0L9.40594 0.624133L8.73762 0.274619L8.39109 1.02358L7.30198 0.898752L7.72277 1.57282C7.89604 1.84743 7.99505 2.14702 8.04455 2.32178L7.30198 2.17198H7.27723C7.22772 2.17198 7.12871 2.14702 6.95545 2.14702C6.60891 2.14702 5.96535 2.22191 5.42079 2.79612C5.12376 3.0957 5 3.42025 4.95049 3.69487C4.77723 3.59501 4.67822 3.37032 4.67822 3.37032L4.28218 2.42164L3.61386 3.24549C3.5396 3.34535 3.14356 3.89459 3.24257 4.59362C3.24257 4.66852 3.26733 4.71845 3.29208 4.79334C3.16832 4.74341 3.0198 4.71845 2.87129 4.71845C2.5 4.71845 2.15347 4.86824 1.88119 5.14286C1.48515 5.5423 1.16337 5.59223 1.16337 5.59223C1.16337 5.59223 0.816832 5.66713 0.272277 5.64216L0.643564 6.46602C0.841584 6.9154 1.36139 7.23994 1.88119 7.23994H2.00495C1.48515 7.61442 0.965346 7.63939 0.891089 7.63939L0 7.58946L0.272277 8.43828C0.39604 8.86269 0.841584 9.58669 1.70792 9.66158C1.60891 10.061 1.41089 10.4854 0.965347 10.6852L0.321782 10.9598L0.668317 11.5839C0.866337 11.9085 1.33663 12.3079 2.00495 12.3079C2.15347 12.3079 2.30198 12.2829 2.42574 12.258C2.4505 12.4078 2.5 12.5576 2.5495 12.7074C2.74752 13.3065 2.57426 13.7309 2.57426 13.7309L2.25248 14.405L2.9703 14.6047C2.9703 14.6047 3.19307 14.6796 3.46535 14.6796C3.58911 14.6796 3.71287 14.6546 3.81188 14.6297C3.88614 14.6047 3.98515 14.5798 4.05941 14.5548C4.15842 14.7295 4.25743 14.8793 4.40594 15.0042C4.87624 15.4785 5.5198 15.7282 6.33663 15.7282H6.93069L5.71782 16.2275L6.63366 16.6768C6.9802 16.8516 7.37624 17.0264 7.77228 17.1761L7.64851 17.5007L7.9703 17.6505C7.99505 17.6755 8.61386 17.9501 9.62871 18H10.3713C11.3861 17.9501 12.0049 17.6755 12.0297 17.6505L12.3515 17.5007L12.2277 17.1761C12.6485 17.0264 13.0693 16.8266 13.3911 16.6519L14.3069 16.2025L13.0941 15.7032H13.6881C14.5049 15.7032 15.1733 15.4535 15.6188 14.9792C15.7426 14.8544 15.8663 14.6796 15.9653 14.5298C16.0396 14.5548 16.1139 14.5798 16.2129 14.6047C16.3119 14.6297 16.4356 14.6546 16.5594 14.6546C16.8317 14.6546 17.0545 14.6047 17.0545 14.6047L17.7723 14.405L17.4505 13.7309C17.4505 13.706 17.2772 13.3065 17.4752 12.7074C17.5248 12.5576 17.5743 12.4078 17.599 12.258C17.7228 12.2829 17.8713 12.3079 18.0198 12.3079C18.8861 12.3079 19.2822 11.7087 19.3564 11.5589L19.703 10.9348L19.0594 10.6602C18.6139 10.4605 18.3911 10.0361 18.3168 9.63662C19.1584 9.58669 19.6287 8.86269 19.7525 8.43828ZM10 2.57143C9.30693 2.57143 8.78713 2.79612 8.68812 3.07074L10 3.59501L11.3119 3.07074C11.2129 2.79612 10.6931 2.57143 10 2.57143ZM10.0248 16.4771H10C9.57921 16.4771 9.0099 16.4022 8.73762 16.3024L8.39109 17.2261C8.61386 17.301 9.35644 17.4508 10 17.4508C10.6436 17.4508 11.4109 17.301 11.6089 17.2261L11.2871 16.3024C11.0149 16.4022 10.4455 16.4771 10.0248 16.4771Z" fill="white"/>
<path fill-rule="evenodd" clip-rule="evenodd" d="M11.5594 2.39675C11.2624 2.1471 10.6931 1.92241 10 1.92241C9.30693 1.92241 8.76238 2.1471 8.44059 2.39675C8.44059 2.39675 8.36634 1.84751 8.04456 1.34821L8.61386 1.4231L8.91089 0.79897L9.43069 1.09855L9.97525 0.549316L10.5198 1.09855L11.0891 0.79897L11.3861 1.4231L11.9554 1.34821C11.6584 1.84751 11.5594 2.39675 11.5594 2.39675ZM8.73763 1.67276L8.58911 1.64779L8.46535 1.59786C8.53961 1.74765 8.58911 1.89744 8.61386 2.02227C8.98515 1.79758 9.50495 1.67276 10.0248 1.67276C10.5693 1.67276 11.0644 1.79758 11.4604 2.02227C11.4851 1.89744 11.5347 1.74765 11.6089 1.59786L11.3119 1.64779L11.2376 1.498L11.0396 1.07359L10.6683 1.27331L10.5198 1.34821L10.396 1.24835L10.0248 0.8489L9.62871 1.24835L9.5297 1.37317L9.38119 1.29828L9.0099 1.09855L8.81188 1.52296L8.73763 1.67276Z" fill="black"/>
<path d="M14.0594 5.34266C15.3713 6.06665 16.5594 7.26499 16.7574 8.88774C17.0545 10.5105 17.7475 10.9099 17.7475 10.9099C17.203 10.6353 16.8564 9.91131 16.7822 9.66166C16.6832 11.0847 15.9901 12.0583 15.198 13.007C14.7772 13.5063 14.6287 13.9807 14.6287 13.9807C14.6287 13.9807 14.703 13.4564 15.0743 13.007C15.8168 12.1083 16.5347 10.9599 16.5842 9.66166C16.6089 8.73794 16.3861 7.98898 16.0149 7.38982C16.2129 8.03891 16.1881 8.81284 15.495 9.53683C15.495 9.53683 16.8812 7.86416 14.9505 6.16652C14.402 5.7025 13.8155 5.36606 13.3719 5.1116C13.195 5.01011 13.0408 4.92165 12.9208 4.84335C14.4802 5.36762 15.2475 4.79342 15.2475 4.79342C14.7525 5.2428 14.1089 5.2428 13.7129 5.1679C13.8366 5.21783 13.9356 5.26776 14.0594 5.34266Z" fill="black"/>
<path fill-rule="evenodd" clip-rule="evenodd" d="M18.1683 9.28718C19.0594 9.28718 19.3812 8.36346 19.3812 8.31353L19.4802 7.98898H19.1337C19.0099 7.98898 18.0198 7.96402 17.3267 7.06527L17.2772 6.99037L17.2536 6.96031C16.7927 6.37289 16.3729 5.83779 15.5941 5.59231C15.6188 5.56735 15.6436 5.54238 15.6931 5.51742C16.1139 5.2428 16.3366 4.91825 16.4109 4.5188C16.5099 3.9446 16.1386 3.47026 16.1139 3.44529L15.8663 3.12075L15.7178 3.49523C15.7178 3.52019 15.4455 4.11936 14.901 4.11936H14.7525C14.7772 3.84474 14.7277 3.44529 14.3564 3.07081C13.9109 2.59647 13.3663 2.54654 13.0941 2.54654C12.9886 2.54654 12.9081 2.55913 12.8614 2.56643C12.8424 2.56941 12.829 2.57151 12.8218 2.57151L12.4505 2.6464L12.6733 2.94599C12.8465 3.19564 13.0198 3.62005 12.8218 3.8697C12.7717 3.9202 12.6991 3.95935 12.6192 4.00245C12.5806 4.02327 12.5403 4.04504 12.5 4.06943L12.4608 4.08907C12.2175 4.21051 11.9059 4.36603 11.9059 4.76846C11.9059 5.04308 12.104 5.31769 12.5 5.56735C13.6139 6.26638 14.3069 7.01534 14.604 7.83919C15.0743 9.08746 14.4554 9.81145 13.8861 10.1859L13.6139 10.3607L13.8366 10.5854C13.8614 10.6103 14.1584 10.86 14.5545 10.9099H14.7772C15.0495 10.9099 15.2723 10.86 15.4455 10.8101C15.4114 10.879 15.3654 10.9361 15.3158 10.9976C15.2935 11.0252 15.2705 11.0538 15.2475 11.0847C14.901 11.4841 14.505 11.6589 13.9109 11.6589H13.6881L13.6634 11.8836L13.6633 11.892C13.662 11.968 13.6558 12.3481 14.0347 12.6825C14.0842 12.7324 14.1584 12.7823 14.2327 12.8073C13.9604 13.0569 13.7129 13.4564 13.6634 14.1804C13.6139 14.7796 13.4901 15.0042 13.4653 15.0042L13.2178 15.3787H13.6634C14.3812 15.3787 14.9505 15.179 15.3218 14.7796C15.5446 14.5549 15.6683 14.2802 15.7673 14.0306C15.8911 14.1305 16.0644 14.2303 16.2624 14.2802C16.3366 14.3052 16.4356 14.3052 16.5347 14.3052C16.681 14.3052 16.8137 14.278 16.8831 14.2637C16.9076 14.2587 16.9242 14.2553 16.9307 14.2553L17.203 14.1804L17.0792 13.9058C17.0792 13.9029 17.0759 13.8934 17.0705 13.8776C17.0286 13.7567 16.8603 13.27 17.0792 12.6076C17.1782 12.283 17.2525 11.9834 17.2772 11.7587C17.4505 11.8586 17.698 11.9335 17.995 11.9335C18.6239 11.9335 18.9267 11.5019 18.9959 11.4033C19.003 11.3932 19.0076 11.3866 19.0099 11.3843L19.1584 11.1346L18.9109 11.0348C18.0941 10.6852 17.896 9.76152 17.8713 9.26222C17.9455 9.28718 18.0198 9.28718 18.1188 9.28718H18.1683ZM18.8366 11.2594C18.8366 11.2594 18.5891 11.6839 18.0446 11.6839C17.3762 11.6839 17.104 11.2594 17.104 11.2594C17.104 11.2594 17.1535 11.7837 16.9059 12.5077C16.6089 13.3815 16.9059 14.0056 16.9059 14.0056C16.9059 14.0056 16.7574 14.0556 16.5594 14.0556C16.4851 14.0556 16.4109 14.0556 16.3614 14.0306C15.7921 13.9058 15.6683 13.3815 15.6683 13.3815C15.6683 13.3815 15.7178 15.1041 13.7129 15.1041H13.6881C13.6881 15.1041 13.8614 14.8544 13.9109 14.1554C14.0099 12.8822 14.8762 12.7074 14.8762 12.7074C14.8762 12.7074 14.4059 12.6575 14.2079 12.4578C13.8861 12.1832 13.9109 11.8336 13.9109 11.8336C14.604 11.8336 15.0743 11.584 15.4208 11.1845C15.7921 10.7352 15.8663 10.2608 15.8663 10.2608C15.8663 10.2608 15.495 10.6103 14.7525 10.6103H14.5545C14.2079 10.5854 13.9604 10.3607 13.9604 10.3607C14.7277 9.86138 15.2475 9.01256 14.7772 7.71437C14.4059 6.66582 13.4901 5.8919 12.5743 5.31769C12.302 5.14294 12.1287 4.91825 12.1287 4.74349C12.1287 4.48626 12.356 4.37576 12.5902 4.26192C12.7424 4.18794 12.8975 4.11254 12.9951 3.99453C13.2921 3.64502 13.0941 3.09578 12.8465 2.77123C12.8465 2.77123 12.9208 2.74627 13.0693 2.74627C13.3416 2.74627 13.7871 2.82116 14.1584 3.19564C14.6535 3.71991 14.4554 4.29412 14.4554 4.29412L14.5792 4.31908C14.6535 4.34405 14.7277 4.34405 14.8267 4.34405H14.8762C15.5941 4.34405 15.9158 3.57012 15.9158 3.57012C15.9158 3.57012 16.6832 4.5188 15.5446 5.26776C15.3465 5.39259 15.2723 5.51742 15.297 5.64224L15.3218 5.71714L15.396 5.7421C16.1679 5.95443 16.5862 6.47888 17.0685 7.0837L17.1535 7.19009C17.9208 8.18871 19.0099 8.21367 19.1584 8.21367H19.1832C19.1832 8.21367 18.9356 9.01256 18.1931 9.01256H18.1683C17.8218 9.01256 17.6485 8.86277 17.6485 8.86277C17.6485 8.86277 17.5 10.7102 18.8366 11.2594Z" fill="black"/>
<path fill-rule="evenodd" clip-rule="evenodd" d="M17.2622 6.28933C17.1012 6.07884 16.9289 5.85357 16.6089 5.69217L16.2624 5.49245L16.5594 5.29273C16.5648 5.29273 16.5807 5.28448 16.6055 5.27159C16.6952 5.22508 16.9016 5.11797 17.1535 5.11797C17.4257 5.11797 17.6733 5.2428 17.8713 5.44252C18.3663 5.94183 18.8119 5.99176 18.8366 5.99176L19.1832 6.01672L19.0347 6.34127C18.8861 6.66582 18.5149 6.89051 18.1436 6.89051C18.0615 6.89051 17.9965 6.87338 17.9203 6.8533L17.9025 6.84862L17.8713 6.84058C17.6531 6.75255 17.5118 6.58692 17.3627 6.4121C17.3427 6.3886 17.3225 6.36494 17.302 6.34127L17.2622 6.28933ZM17.7228 5.56735C17.5495 5.36762 17.3515 5.31769 17.1782 5.31769C16.9649 5.31769 16.7971 5.40965 16.7464 5.43745C16.7324 5.44514 16.7273 5.44793 16.7327 5.44252C17.1043 5.6433 17.3193 5.91586 17.4999 6.14474C17.6562 6.34274 17.7866 6.50806 17.9703 6.56596C18.0198 6.59093 18.0941 6.59093 18.1683 6.59093C18.4653 6.59093 18.7376 6.41617 18.8366 6.19148C18.8366 6.19148 18.2921 6.16651 17.7228 5.56735Z" fill="black"/>
<path d="M3.44057 9.66145C3.39106 8.73773 3.63859 8.01373 4.00987 7.3896C3.81185 8.01373 3.83661 8.81262 4.52968 9.53662C4.52968 9.53662 3.16829 7.88891 5.07423 6.1663C5.62278 5.70227 6.20928 5.36583 6.65286 5.11137C6.82978 5.00988 6.98396 4.92144 7.10393 4.84314C5.54453 5.36741 4.7772 4.79321 4.7772 4.79321C5.27225 5.21762 5.91581 5.21762 6.31185 5.16769C6.28051 5.1835 6.24668 5.19931 6.21115 5.21591C6.13447 5.25174 6.04989 5.29126 5.96532 5.34244C4.65344 6.06644 3.46532 7.26477 3.2673 8.88752V8.86256C2.97027 10.4853 2.2772 10.8847 2.2772 10.8847C2.82176 10.6101 3.16829 9.9111 3.24255 9.63648C3.34156 11.0595 4.00987 12.0332 4.82671 12.9818C5.2475 13.4811 5.39601 13.9555 5.39601 13.9555C5.39601 13.9555 5.32176 13.4062 4.95047 12.9818C4.20789 12.108 3.49007 10.9846 3.44057 9.66145Z" fill="black"/>
<path fill-rule="evenodd" clip-rule="evenodd" d="M6.36136 14.1552C6.38611 14.7544 6.53463 14.9791 6.53463 14.9791L6.7574 15.3785H6.31185C5.59403 15.3785 5.04948 15.1788 4.65344 14.7793C4.40591 14.5297 4.28215 14.2551 4.20789 14.0304C4.08413 14.1302 3.93562 14.2301 3.71284 14.28C3.61383 14.305 3.53958 14.305 3.44057 14.305C3.29427 14.305 3.16148 14.2777 3.09212 14.2635C3.06759 14.2585 3.05099 14.2551 3.04453 14.2551L2.77225 14.1802L2.89601 13.9056C2.92077 13.9056 3.14354 13.3563 2.89601 12.6074C2.77225 12.2828 2.72275 11.9832 2.69799 11.7585C2.52473 11.8584 2.2772 11.9333 1.98017 11.9333C1.2871 11.9333 0.990072 11.409 0.990072 11.409L0.841558 11.1594L1.08908 11.0595C1.90591 10.71 2.07918 9.78627 2.12869 9.28697C2.09422 9.28697 2.05976 9.29234 2.02282 9.29811C1.98017 9.30476 1.93422 9.31193 1.88116 9.31193H1.83166C0.940567 9.31193 0.618785 8.38822 0.618785 8.33828L0.519775 8.01373H0.86631C0.990072 8.01373 1.98017 7.98877 2.64849 7.04009L2.72275 6.96519C2.75675 6.92367 2.7905 6.88214 2.82416 6.84074C3.25584 6.30964 3.67111 5.79873 4.40591 5.56713C4.38116 5.54217 4.35641 5.5172 4.3069 5.49224C3.88611 5.21762 3.63859 4.89307 3.58908 4.49362C3.49007 3.89446 3.86136 3.44508 3.88611 3.42011L4.13364 3.09556L4.28215 3.47004C4.28215 3.49501 4.55443 4.09418 5.09898 4.09418H5.2475C5.22275 3.84452 5.27225 3.42011 5.64354 3.04563C6.08908 2.59626 6.63364 2.52136 6.90591 2.52136C7.07918 2.52136 7.17819 2.54633 7.17819 2.54633L7.54948 2.62122L7.32671 2.92081C7.15344 3.17046 6.98017 3.61984 7.17819 3.84452C7.25245 3.91942 7.37621 3.99432 7.49997 4.04425L7.53918 4.06389C7.78248 4.18533 8.09403 4.34086 8.09403 4.74328C8.09403 5.0179 7.87126 5.29251 7.49997 5.54217C6.38611 6.2412 5.69304 6.99016 5.39601 7.81401C4.92572 9.06228 5.51978 9.78627 6.11383 10.1608L6.38611 10.3355L6.16334 10.5602C6.13859 10.6101 5.86631 10.8598 5.44552 10.8847H5.22275C4.97522 10.8847 4.7277 10.8348 4.55443 10.7849C4.58861 10.8538 4.63458 10.9109 4.68422 10.9725C4.70647 11.0001 4.72946 11.0286 4.75245 11.0595C5.07423 11.434 5.49502 11.6337 6.08908 11.6337H6.31185L6.33661 11.8584L6.33668 11.8626C6.33785 11.9139 6.34707 12.3204 5.96532 12.6573C5.91581 12.7072 5.84156 12.7571 5.7673 12.7821C6.03958 13.0318 6.31185 13.4312 6.36136 14.1552ZM4.35641 13.3813C4.35641 13.3813 4.3069 15.1039 6.31185 15.1039C6.31788 15.1039 6.31218 15.0906 6.29939 15.0607C6.25961 14.9679 6.15129 14.7152 6.11383 14.2051C6.01482 12.9319 5.14849 12.7571 5.14849 12.7571C5.14849 12.7571 5.61878 12.6823 5.8168 12.5075C6.13859 12.2079 6.11383 11.8834 6.11383 11.8834C5.42077 11.8834 4.95047 11.6337 4.60393 11.2343C4.23265 10.7849 4.15839 10.3105 4.15839 10.3105C4.15839 10.3105 4.52968 10.6601 5.27225 10.6601H5.47027C5.8168 10.6351 6.06433 10.4104 6.06433 10.4104C5.297 9.9111 4.7772 9.06228 5.2475 7.76408C5.61878 6.71554 6.53463 5.94161 7.45047 5.36741C7.7475 5.16769 7.92076 4.943 7.92076 4.76824C7.92076 4.49434 7.69087 4.38738 7.45528 4.27778C7.30435 4.20757 7.15108 4.13626 7.05443 4.01928C6.78215 3.66977 6.95542 3.12053 7.20294 2.79598C7.20294 2.79598 7.10393 2.77102 6.98017 2.77102C6.73265 2.77102 6.26235 2.82095 5.89106 3.22039C5.39601 3.74466 5.59403 4.31887 5.59403 4.31887L5.47027 4.34383C5.39601 4.3688 5.297 4.3688 5.22275 4.3688H5.17324C4.45542 4.3688 4.13364 3.59487 4.13364 3.59487C4.13364 3.59487 3.36631 4.54355 4.50492 5.29251C4.67819 5.41734 4.7772 5.54217 4.75245 5.66699L4.7277 5.74189L4.65344 5.76686C3.88071 5.97316 3.54963 6.39082 3.02142 7.05719C2.98025 7.10912 2.93852 7.16176 2.89601 7.21484C2.12869 8.21346 1.01482 8.23842 0.891062 8.23842H0.86631C0.86631 8.23842 1.11383 9.03731 1.85641 9.03731H1.88116C2.2277 9.01235 2.40096 8.88752 2.40096 8.88752C2.40096 8.88752 2.52473 10.71 1.18809 11.2592C1.18809 11.2592 1.43562 11.6836 1.98017 11.6836C2.64849 11.6587 2.92077 11.2592 2.92077 11.2592C2.92077 11.2592 2.87126 11.7835 3.11879 12.5075C3.41581 13.3813 3.11879 14.0054 3.11879 14.0054C3.11879 14.0054 3.29205 14.0553 3.46532 14.0553C3.51482 14.0553 3.58908 14.0553 3.66334 14.0304C4.20789 13.9056 4.35641 13.3813 4.35641 13.3813Z" fill="black"/>
<path fill-rule="evenodd" clip-rule="evenodd" d="M1.85641 6.86533C1.95542 6.86533 2.05443 6.84036 2.12869 6.8154C2.37621 6.7405 2.54948 6.54078 2.69799 6.31609C2.87126 6.0914 3.06928 5.86672 3.39106 5.66699L3.7376 5.49224L3.41582 5.26755C3.39106 5.24258 3.14354 5.09279 2.82176 5.09279C2.54948 5.09279 2.30195 5.19265 2.10393 5.41734C1.60888 5.94161 1.16334 5.96658 1.13859 5.96658L0.816805 5.99154L0.96532 6.31609C1.11383 6.61568 1.48512 6.86533 1.85641 6.86533ZM2.30195 5.5921C2.47522 5.39237 2.67324 5.34244 2.84651 5.34244C3.09403 5.34244 3.29205 5.49224 3.29205 5.49224C2.91489 5.69603 2.69899 5.96635 2.51672 6.19459C2.36404 6.38576 2.23495 6.5474 2.05443 6.61568C1.98017 6.64064 1.93067 6.64064 1.85641 6.64064C1.55938 6.64064 1.2871 6.44092 1.18809 6.2412C1.18809 6.23628 1.2092 6.2304 1.24744 6.21974C1.40346 6.17625 1.84472 6.05326 2.30195 5.5921Z" fill="black"/>
<path d="M9.35641 4.41867C9.50493 4.5435 9.60394 4.56846 9.60394 4.56846L9.65344 4.59343V4.29384L9.10947 4.0694C9.11328 4.09119 9.14186 4.24555 9.35641 4.41867Z" fill="black"/>
<path d="M8.93561 12.0582C8.91086 12.0582 8.86135 12.0832 8.86135 12.1082C8.86135 12.1331 8.8861 12.1831 8.91086 12.1831C8.93561 12.1831 8.98511 12.1581 8.98511 12.1331C9.00987 12.0832 8.98511 12.0582 8.93561 12.0582Z" fill="black"/>
<path d="M9.55443 6.341V6.66555C9.67819 6.54072 9.87621 6.56569 9.87621 6.56569V7.04003C9.87621 7.04003 9.87621 7.26472 9.7772 7.36458H10.2227C10.1485 7.26472 10.1237 7.04003 10.1237 7.04003V6.56569C10.1237 6.56569 10.3465 6.54072 10.4455 6.66555V6.341H9.55443Z" fill="black"/>
<path d="M10.6683 4.41867C10.9158 4.21895 10.9158 4.04419 10.9158 4.04419L10.3713 4.26888V4.56846L10.4208 4.5435C10.4208 4.5435 10.5198 4.51853 10.6683 4.41867Z" fill="black"/>
<path fill-rule="evenodd" clip-rule="evenodd" d="M11.6586 3.1703C11.6586 2.69595 10.8913 2.29651 10.0249 2.29651C9.1586 2.29651 8.39128 2.72092 8.39128 3.1703L8.41603 3.29512L8.76256 5.29235L8.41603 5.49207L7.50019 5.99138C7.50019 5.99138 7.30217 6.09124 7.20316 6.16614C6.85662 6.41579 6.78236 6.74034 6.98038 6.89013C7.02989 6.61551 7.25266 6.31593 7.67345 6.31593C7.97048 6.31593 8.19326 6.46572 8.39128 6.71537C8.44078 6.7653 8.49028 6.8402 8.51504 6.9151L8.66355 7.13978H6.36157C6.53484 7.4893 6.68335 7.83881 6.68335 8.23826V13.3562C6.68335 14.6044 7.62395 15.1786 8.66355 15.1786L8.78829 15.1785C9.46759 15.1772 9.57918 15.177 10.0002 15.5781C10.402 15.1728 10.522 15.1736 11.1225 15.1777C11.1879 15.1781 11.2591 15.1786 11.3368 15.1786C12.3517 15.1786 13.317 14.5795 13.317 13.3562V8.21329C13.317 7.81385 13.4655 7.46433 13.6388 7.11482H11.3368L11.4853 6.89013C11.5001 6.86778 11.5149 6.84765 11.529 6.82842C11.5622 6.78321 11.5917 6.74295 11.6091 6.69041C11.7824 6.46572 12.0299 6.29096 12.3269 6.29096C12.7477 6.29096 12.9705 6.59055 13.02 6.86516C13.218 6.71537 13.1438 6.36586 12.7972 6.14117C12.6982 6.06627 12.5002 5.96641 12.5002 5.96641L11.2873 5.26738L11.6338 3.27016L11.6586 3.1703ZM8.71306 3.39498L9.92593 3.81939V5.74172L9.03484 5.24242L8.71306 3.39498ZM8.96058 7.43937C9.1586 7.63909 9.35662 7.76392 9.52989 7.83881C9.50514 7.93867 9.48038 8.1384 9.55464 8.33812C9.6289 8.48791 9.75266 8.61274 9.95068 8.7126C9.97543 8.91232 10.0992 9.21191 10.4457 9.33673L10.0992 9.68625L8.71306 9.66128C8.70557 9.65373 8.69581 9.64617 8.68515 9.63792C8.66061 9.61892 8.6313 9.59623 8.61405 9.56142V9.53646L8.83682 9.56142H8.86157C8.91108 9.56142 8.93583 9.53646 8.96058 9.48652C8.96058 9.43659 8.93583 9.38666 8.88632 9.38666L8.61405 9.33673L8.91108 8.26322L8.61405 7.63909L8.14375 8.1384L8.119 9.26184L7.79722 9.21191C7.74771 9.21191 7.69821 9.23687 7.69821 9.2868C7.69821 9.33673 7.72296 9.38666 7.77246 9.38666L7.89623 9.41163C7.84672 9.43659 7.82197 9.46156 7.82197 9.46156L7.77246 9.48652V9.51149C7.69821 9.83604 7.87147 10.1107 8.04474 10.2604V10.3104C8.04474 10.3603 8.04474 10.4102 8.06949 10.4352C8.09424 10.4851 8.14375 10.5101 8.19325 10.5101H8.21801C8.29226 10.5101 8.36652 10.4602 8.39128 10.3603H8.58929L10.3962 10.6849L10.421 10.6599C10.5695 10.56 11.114 10.1606 11.2873 10.0108C11.3236 10.0473 11.3598 10.0705 11.4057 10.0999C11.4225 10.1106 11.4407 10.1223 11.4606 10.1356C11.4111 10.3353 11.3863 10.6349 11.6338 10.8846H7.02989V8.21329C7.02989 7.96364 6.95563 7.68902 6.85662 7.43937H8.96058ZM10.7799 10.2105C10.6192 10.329 10.458 10.4478 10.3715 10.5101L8.71306 10.2105V10.1606C8.73781 10.0857 8.76256 9.96087 8.76256 9.81107L10.1487 9.83604L10.1735 9.81107C10.1771 9.80736 10.1901 9.7948 10.2103 9.77529C10.3259 9.66367 10.6769 9.32455 10.8665 9.11204C10.8989 9.16098 10.9418 9.19925 10.9883 9.24079C11.0131 9.26284 11.0388 9.2858 11.0645 9.31177C11.0645 9.48652 11.0645 9.71121 11.1883 9.91094C11.1018 9.97327 10.9406 10.0921 10.7799 10.2105ZM8.44078 9.61135C8.49028 9.68624 8.53978 9.73617 8.58928 9.7861C8.58928 9.861 8.58928 9.98588 8.56454 10.0857C8.56454 10.1107 8.56454 10.1356 8.53979 10.1606V10.1856C8.46553 10.1856 8.31702 10.1856 8.21801 10.1356C8.09425 10.0857 7.89622 9.83604 7.94573 9.58639C7.99523 9.56142 8.14375 9.48652 8.24276 9.48652C8.34177 9.48652 8.39127 9.51149 8.44078 9.61135ZM8.26751 9.2868L8.29226 8.21329L8.53979 7.96364L8.6883 8.28819L8.39128 9.31177L8.26751 9.2868ZM10.9408 14.8291L11.1388 14.2299C11.1564 14.1766 11.0861 14.0979 11.0174 14.0209C10.9896 13.9899 10.9621 13.9591 10.9408 13.9304C10.9755 13.9479 11.0285 13.9777 11.088 14.0111C11.1982 14.0731 11.3307 14.1476 11.4111 14.18C11.3863 14.205 11.1883 14.8291 11.1883 14.8291H10.9408ZM11.8071 14.1301L11.6834 14.8041C11.6462 14.8041 11.6029 14.8104 11.5596 14.8166C11.5163 14.8229 11.473 14.8291 11.4358 14.8291L11.5596 14.18C11.584 14.0815 11.47 14.0195 11.3185 13.937C11.1627 13.8522 10.9673 13.7457 10.8418 13.5559C10.718 13.7057 10.4952 13.7306 10.2477 13.7306C10.0249 13.7306 9.82692 13.7057 9.70316 13.6807H9.60415C9.52989 13.6807 9.45563 13.7057 9.40613 13.7806L9.35662 13.8555L8.66355 13.6557L8.49028 13.9553C8.46553 14.0052 8.46553 14.0302 8.51504 14.0801L8.56454 14.1301C8.53979 14.2299 8.39128 14.3797 8.39128 14.3797L8.29226 14.2549C8.21801 14.155 8.21801 13.9803 8.31702 13.8305L8.58929 13.3562L9.18335 13.431L9.08434 13.2313C9.00437 13.0539 9.05876 12.8451 9.10726 12.659C9.13381 12.5571 9.1586 12.462 9.1586 12.3825C9.1586 12.4324 9.08434 12.4574 9.03484 12.4574H8.81207L8.66355 12.5573L8.53979 12.4324C8.51504 12.4075 8.51504 12.3575 8.56454 12.3326L8.86157 12.008L8.51504 11.6086L9.01009 11.8582L9.1586 11.6835C9.20811 11.7334 9.18335 11.8333 9.18335 11.8333C9.33187 11.8333 9.75266 12.0829 9.77741 12.6322V12.7071C9.80217 12.757 9.90118 12.8568 10.0002 12.8568L10.6685 12.9317C10.6979 12.9317 10.7389 12.92 10.7884 12.9058C10.8642 12.8842 10.9598 12.8568 11.0645 12.8568C11.1636 12.8568 11.2873 12.8818 11.4111 12.9567C11.4111 12.9567 11.4606 12.9068 11.5596 12.9068H11.5843C11.8256 12.9068 11.9526 13.088 12.0846 13.2764C12.1151 13.32 12.1459 13.3639 12.1784 13.4061C12.3022 13.5808 12.4507 13.8305 12.4507 13.8305C12.4012 13.9054 12.3269 13.9304 12.2527 13.9304H12.1784C11.9906 13.9012 11.8955 13.6594 11.8145 13.4532C11.7567 13.3061 11.706 13.1772 11.6338 13.1564H11.6091C11.5596 13.1564 11.5348 13.2064 11.5348 13.2064C11.5674 13.3049 11.5762 13.3794 11.5841 13.4467C11.5942 13.533 11.603 13.6075 11.6586 13.7057C11.7024 13.7793 11.7634 13.8442 11.8162 13.9004C11.853 13.9396 11.8858 13.9745 11.9061 14.0052C11.8319 13.9553 11.8071 14.0552 11.8071 14.1301ZM8.19325 13.5059L8.21801 13.5808C8.19326 13.6557 7.97048 13.7556 7.97048 13.7556L7.92098 13.6308C7.87147 13.5059 7.87147 13.3062 8.04474 13.1814L8.41603 12.9567L8.81207 13.0316C8.81207 13.1564 8.88632 13.2563 8.88632 13.2563L8.46553 13.1814L8.21801 13.3562C8.19326 13.3811 8.19325 13.456 8.19325 13.5059ZM11.8566 14.7792L11.9804 14.18C11.9804 14.1675 11.9866 14.1488 11.9928 14.1301C11.9989 14.1114 12.0051 14.0926 12.0051 14.0801C12.0299 14.1051 12.0794 14.1051 12.1041 14.1051H12.2279C12.4012 14.1051 12.5002 14.0052 12.5744 13.9304L12.6735 13.8305L12.5992 13.7057C12.5992 13.7057 12.4259 13.431 12.3022 13.2563C12.2898 13.2438 12.2774 13.2251 12.265 13.2064C12.2527 13.1876 12.2403 13.1689 12.2279 13.1564L12.1943 13.1107C12.0526 12.9174 11.8803 12.6821 11.5596 12.6821H11.5348C11.5101 12.6821 11.4853 12.6883 11.4606 12.6946C11.4358 12.7008 11.4111 12.7071 11.3863 12.7071C11.2873 12.6571 11.1636 12.6322 11.0398 12.6322C10.9086 12.6322 10.7967 12.6711 10.7212 12.6974L10.6933 12.7071C10.6685 12.732 10.6438 12.732 10.619 12.732L9.97543 12.6571C9.97543 12.6571 9.95068 12.6322 9.90118 12.6072L10.0497 12.5573C10.0002 12.0829 9.55464 11.7833 9.30712 11.6835C9.30712 11.6335 9.28236 11.5836 9.23286 11.5586L9.08434 11.4338L8.96058 11.5836L8.91108 11.6335L7.99523 11.2591L8.58929 12.008L8.36652 12.3575C8.29226 12.4574 8.36652 12.5323 8.36652 12.5323L8.61405 12.7071L8.86157 12.6072H8.88632C8.88632 12.6571 8.86157 12.8069 8.83682 12.8319L8.41603 12.7819L7.94573 13.0316C7.69821 13.2064 7.67345 13.5059 7.77246 13.6807L7.89623 13.9304L8.04474 13.8555C7.99524 14.0302 8.01999 14.2299 8.119 14.3298L8.21801 14.4546L8.34177 14.6294L8.49028 14.4796C8.53979 14.4297 8.66355 14.2799 8.71306 14.155L8.73781 14.0552L8.66355 13.9803V13.9553L8.73781 13.8305L9.30712 13.9553L9.43088 13.9803L9.50514 13.8555L9.52989 13.8055C9.52989 13.793 9.52989 13.7868 9.53301 13.7837C9.53611 13.7806 9.5423 13.7806 9.55464 13.7806H9.6289C9.85167 13.8305 10.0497 13.8305 10.223 13.8305C10.3962 13.8305 10.4952 13.8305 10.619 13.7806C10.619 13.7806 10.916 14.1301 10.9408 14.155L10.7428 14.7292V14.7542C10.3962 14.7792 10.223 14.8541 10.0002 15.0788C9.70316 14.7792 9.48038 14.7542 8.66355 14.7542C7.69821 14.7542 7.02989 14.18 7.02989 13.2563V11.0094H12.9705V13.2563C12.9705 14.0801 12.5497 14.6044 11.8566 14.7792ZM13.1437 7.43937C13.0447 7.68902 12.9705 7.93867 12.9705 8.21329V9.88597C12.6239 9.83604 12.5744 9.43659 12.5744 9.43659V9.3617H12.5002C12.3517 9.33673 12.2527 9.2868 12.1537 9.21191C11.9804 9.03715 11.9804 8.76253 11.9804 8.76253C11.9804 8.76642 11.9756 8.77577 11.9683 8.78991C11.9289 8.86652 11.8171 9.08383 12.0051 9.33673C12.1041 9.46156 12.2279 9.53646 12.4012 9.56142C12.4507 9.76114 12.5992 10.0607 12.9705 10.1107V10.9345H11.9309C11.5095 10.6885 11.6246 10.3021 11.6531 10.2064C11.6565 10.1953 11.6586 10.1882 11.6586 10.1856L11.7081 10.0857L11.6338 10.0108C11.1583 9.82807 11.2421 9.39456 11.2598 9.303C11.2615 9.29448 11.2626 9.28893 11.2626 9.2868L11.2873 9.21191L11.2131 9.18694C10.8138 8.99743 10.8379 8.51572 10.8414 8.44562L10.8418 8.43798C10.718 8.53784 10.6685 8.76253 10.7428 8.98722C10.6933 9.03715 10.619 9.11204 10.5695 9.18694C10.1487 9.06211 10.1487 8.6377 10.1487 8.6377V8.56281L10.0992 8.53784C9.92593 8.46295 9.80217 8.38805 9.75266 8.23826C9.6784 8.08847 9.70316 7.93867 9.72791 7.86378C9.75266 7.86378 9.77741 7.87002 9.80217 7.87626C9.82692 7.8825 9.85167 7.88874 9.87642 7.88874H10.1735C10.4457 7.86378 10.7428 7.73895 11.0645 7.4144H13.1437V7.43937ZM11.5348 5.74172L11.9309 5.99138L12.0299 6.04131C11.8071 6.1162 11.6338 6.21607 11.4853 6.36586L11.4606 6.39082C11.4358 6.41579 11.3863 6.46572 11.3616 6.51565C11.3616 6.51565 11.3616 6.54062 11.3368 6.54062C11.3121 6.59055 11.2873 6.61551 11.2378 6.66544C11.2378 6.66544 11.2378 6.69041 11.2131 6.69041C11.2007 6.71537 11.1821 6.74034 11.1636 6.7653C11.145 6.79027 11.1264 6.81523 11.114 6.8402C10.817 7.33951 10.3715 7.63909 9.95068 7.63909C9.52989 7.63909 9.08434 7.33951 8.78731 6.8402C8.77494 6.81523 8.75637 6.79027 8.73781 6.7653C8.71924 6.74034 8.70068 6.71537 8.6883 6.69041L8.66355 6.66544C8.65118 6.64048 8.6388 6.62175 8.62642 6.60303C8.61405 6.5843 8.60167 6.56558 8.58929 6.54062L8.56454 6.51565C8.55217 6.49068 8.5336 6.47196 8.51504 6.45324C8.49647 6.43451 8.47791 6.41579 8.46553 6.39082L8.44078 6.36586C8.29226 6.21607 8.119 6.09124 7.89623 6.04131L7.99523 5.99138L8.39128 5.74172L8.81207 5.49207L9.92593 6.1162L11.0398 5.49207L11.5348 5.74172ZM10.9903 5.24242L10.0992 5.71676V3.79443L11.3121 3.37002L10.9903 5.24242ZM10.0002 3.59471L8.6883 3.07043C8.81207 2.79582 9.30712 2.57113 10.0002 2.57113C10.6933 2.57113 11.2131 2.79582 11.3121 3.07043L10.0002 3.59471Z" fill="black"/>
<path fill-rule="evenodd" clip-rule="evenodd" d="M12.9703 16.1525L12.6237 16.0028L12.7227 15.6532L12.8217 15.2538C12.8217 15.2538 12.2277 15.5783 11.3614 15.828C11.1138 15.9029 10.9406 15.9279 10.9406 15.9279V16.2274C10.9406 16.2274 10.495 16.3023 10.0247 16.3023C9.55442 16.3023 9.10888 16.2274 9.10888 16.2274V15.9528C9.10888 15.9528 8.93561 15.9279 8.68808 15.853C7.82175 15.6033 7.22769 15.2788 7.22769 15.2788L7.3267 15.6782L7.42571 16.0277L7.07917 16.1525L6.70789 16.3023C7.15343 16.527 7.74749 16.8266 8.29204 16.9764L8.16828 17.3259C8.16828 17.3259 8.86135 17.6505 10.0495 17.6505C11.2128 17.6505 11.9307 17.3259 11.9307 17.3259L11.8069 16.9764C12.2585 16.8522 12.7611 16.6078 13.1596 16.414C13.2416 16.3742 13.3192 16.3364 13.3911 16.3023L12.9703 16.1525ZM7.07917 16.3023L7.64848 16.1026L7.47521 15.5534C7.72274 15.7032 8.26729 15.9029 8.58907 16.0028L8.3168 16.7517C7.82175 16.6518 7.42571 16.4771 7.07917 16.3023ZM9.99997 17.4507C9.3564 17.4507 8.58907 17.3009 8.39105 17.2261L8.71284 16.3023C8.98511 16.3772 9.55442 16.4771 9.97521 16.4771H9.99997C10.4208 16.4771 10.9901 16.4022 11.2623 16.3023L11.6336 17.2261C11.4109 17.3009 10.6683 17.4507 9.99997 17.4507ZM11.7079 16.7767L11.4356 16.0277C11.7574 15.9279 12.3019 15.7032 12.5742 15.5783L12.3762 16.1276L12.9455 16.3273L12.907 16.344C12.5697 16.4899 12.1847 16.6564 11.7079 16.7767Z" fill="black"/>
<path d="M9.52464 7.86164C9.35256 7.78651 9.15644 7.66217 8.96031 7.46436H6.8811C6.98011 7.71401 7.05437 7.96366 7.05437 8.23828V10.8846H11.6338C11.392 10.6407 11.4101 10.3491 11.4572 10.1496C11.3979 10.1226 11.3548 10.0792 11.3118 10.0358C11.1385 10.1606 10.5692 10.585 10.4455 10.6849L10.4207 10.7098L8.61378 10.3853H8.41576C8.391 10.4602 8.31675 10.5351 8.24249 10.5351H8.21774C8.1757 10.5351 8.13366 10.5171 8.10678 10.4811C8.09171 10.4693 8.07884 10.4541 8.06949 10.4352C8.04474 10.4102 8.04474 10.3603 8.04474 10.3104V10.269C7.92372 10.183 7.8161 10.0323 7.78059 9.85265C7.75163 9.74866 7.74452 9.63361 7.77246 9.51149V9.48652L7.82197 9.46156C7.82197 9.46156 7.83583 9.44758 7.86355 9.43008L7.77219 9.41165C7.72269 9.41165 7.69794 9.36172 7.69794 9.31179C7.69794 9.30787 7.69824 9.3041 7.69883 9.30048C7.69841 9.29595 7.69821 9.29137 7.69821 9.2868C7.69821 9.23687 7.74771 9.21191 7.79722 9.21191L8.119 9.26184L8.14375 8.1384L8.61405 7.63909L8.91108 8.26322L8.9066 8.27938L8.91081 8.28821L8.62037 9.33789L8.88632 9.38666C8.93583 9.38666 8.96058 9.43659 8.96058 9.48652L8.95878 9.49012C8.9598 9.49715 8.96031 9.50433 8.96031 9.51151C8.96031 9.56144 8.91081 9.58641 8.8613 9.58641H8.83655L8.61407 9.56148C8.63134 9.59626 8.66062 9.61893 8.68515 9.63792C8.69581 9.64617 8.70557 9.65373 8.71306 9.66128L10.0992 9.68625L10.4276 9.35505C10.0946 9.2265 9.97473 8.93384 9.95041 8.73759C9.75239 8.66269 9.62863 8.53786 9.55437 8.36311C9.47763 8.2083 9.49011 8.05349 9.51113 7.94519C9.51469 7.91382 9.51951 7.88565 9.52464 7.86164Z" fill="#FCE527"/>
<path d="M11.858 14.7723L11.9804 14.18C11.9804 14.1675 11.9866 14.1488 11.9928 14.1301C11.9982 14.1135 12.0037 14.097 12.0049 14.0847C12.0079 14.0856 12.011 14.0866 12.0142 14.0876C12.0288 14.0973 12.0482 14.1016 12.0662 14.1036C12.071 14.1046 12.0753 14.1051 12.0791 14.1051H12.2029L12.2074 14.1051H12.2279C12.4012 14.1051 12.5002 14.0052 12.5744 13.9304L12.6735 13.8305L12.5992 13.7057C12.5992 13.7057 12.4259 13.431 12.3022 13.2563C12.2898 13.2438 12.2774 13.2251 12.265 13.2064C12.2527 13.1876 12.2403 13.1689 12.2279 13.1564L12.1943 13.1107C12.0526 12.9174 11.8803 12.6821 11.5596 12.6821H11.5348L11.5322 12.6821H11.5098C11.4646 12.6821 11.4194 12.6821 11.3742 12.7011C11.2773 12.6551 11.1585 12.6322 11.0398 12.6322C11.0357 12.6322 11.0316 12.6322 11.0275 12.6323C11.0233 12.6322 11.0191 12.6322 11.0148 12.6322C10.8836 12.6322 10.7717 12.6712 10.6962 12.6974C10.6862 12.7009 10.6769 12.7042 10.6682 12.7071C10.654 12.7215 10.6479 12.7275 10.6406 12.7301C10.637 12.7314 10.633 12.7319 10.6274 12.732C10.6246 12.732 10.6218 12.732 10.619 12.732L9.97543 12.6571C9.97543 12.6571 9.9507 12.6322 9.90122 12.6072H10.0742C10.0623 12.4934 10.0276 12.3896 9.97832 12.2963C9.83548 11.9809 9.52309 11.7749 9.32346 11.6902C9.31914 11.68 9.3131 11.6703 9.30533 11.6603C9.29884 11.6186 9.27468 11.5797 9.23286 11.5586L9.08434 11.4338L8.96058 11.5836L8.91108 11.6335L7.99523 11.2591L8.07143 11.3551L8.01972 11.334L8.57373 12.0324L8.36652 12.3575C8.31977 12.4204 8.33189 12.4734 8.34728 12.504C8.34294 12.5587 8.39101 12.6072 8.39101 12.6072L8.63853 12.782L8.87853 12.6851C8.86927 12.7455 8.85305 12.8155 8.83682 12.8319L8.41603 12.7819L7.94573 13.0316C7.75771 13.1643 7.69823 13.3691 7.72389 13.5365C7.72633 13.6048 7.74265 13.6711 7.77219 13.7307L7.89596 13.9803L8.03145 13.912C8.02261 13.9589 8.01888 14.0066 8.02027 14.0529C8.01496 14.1752 8.04778 14.2903 8.11873 14.3798L8.21774 14.5046L8.3415 14.6793L8.49001 14.5295C8.53952 14.4796 8.66328 14.3298 8.71279 14.205L8.73754 14.1051L8.72785 14.0954L8.73781 14.0552L8.67402 13.9908L8.73754 13.9054L9.30685 14.0302L9.43061 14.0552L9.50487 13.9304L9.52962 13.8804C9.52962 13.8679 9.52962 13.8617 9.53274 13.8586C9.53584 13.8555 9.54203 13.8555 9.55437 13.8555H9.62863C9.6537 13.8583 9.67845 13.8611 9.70289 13.8639C9.89565 13.8857 10.0689 13.9054 10.2227 13.9054C10.396 13.9054 10.495 13.9054 10.6187 13.8555C10.6187 13.8555 10.8586 14.116 10.9241 14.2033L10.7428 14.7292V14.7542C10.3962 14.7792 10.223 14.8541 10.0002 15.0788C9.70316 14.7792 9.48038 14.7542 8.66355 14.7542C7.69821 14.7542 7.02989 14.18 7.02989 13.2563V11.0843H12.9702L12.9455 13.3312C12.9455 14.0706 12.5354 14.591 11.858 14.7723Z" fill="#FCE527"/>
</svg>
