<svg width="30" height="35" viewBox="0 0 30 35" fill="none" xmlns="http://www.w3.org/2000/svg">
<path d="M15 30.0916L22.8375 22.2541C24.3874 20.704 25.4429 18.7292 25.8705 16.5793C26.298 14.4293 26.0785 12.2009 25.2396 10.1758C24.4007 8.15061 22.9801 6.41969 21.1575 5.20189C19.3348 3.98409 17.192 3.33409 15 3.33409C12.808 3.33409 10.6652 3.98409 8.84255 5.20189C7.01993 6.41969 5.59935 8.15061 4.76045 10.1758C3.92155 12.2009 3.70199 14.4293 4.12955 16.5793C4.55711 18.7292 5.61259 20.704 7.16251 22.2541L15 30.0916ZM15 34.5693L4.92367 24.493C2.93079 22.5001 1.57363 19.9609 1.0238 17.1967C0.473978 14.4325 0.756186 11.5673 1.83474 8.96347C2.91329 6.35963 4.73975 4.1341 7.08315 2.56829C9.42654 1.00249 12.1816 0.166748 15 0.166748C17.8184 0.166748 20.5735 1.00249 22.9169 2.56829C25.2603 4.1341 27.0867 6.35963 28.1653 8.96347C29.2438 11.5673 29.526 14.4325 28.9762 17.1967C28.4264 19.9609 27.0692 22.5001 25.0763 24.493L15 34.5693ZM15 17.5833C15.8399 17.5833 16.6453 17.2497 17.2392 16.6558C17.833 16.0619 18.1667 15.2565 18.1667 14.4166C18.1667 13.5768 17.833 12.7713 17.2392 12.1775C16.6453 11.5836 15.8399 11.25 15 11.25C14.1602 11.25 13.3547 11.5836 12.7608 12.1775C12.167 12.7713 11.8333 13.5768 11.8333 14.4166C11.8333 15.2565 12.167 16.0619 12.7608 16.6558C13.3547 17.2497 14.1602 17.5833 15 17.5833ZM15 20.75C13.3203 20.75 11.7094 20.0827 10.5217 18.895C9.33393 17.7072 8.66667 16.0963 8.66667 14.4166C8.66667 12.7369 9.33393 11.126 10.5217 9.93828C11.7094 8.75055 13.3203 8.08329 15 8.08329C16.6797 8.08329 18.2906 8.75055 19.4783 9.93828C20.6661 11.126 21.3333 12.7369 21.3333 14.4166C21.3333 16.0963 20.6661 17.7072 19.4783 18.895C18.2906 20.0827 16.6797 20.75 15 20.75Z" fill="#007C67"/>
</svg>
