<svg width="62" height="67" viewBox="0 0 62 67" fill="none" xmlns="http://www.w3.org/2000/svg">
<mask id="path-1-inside-1_121_961" fill="white">
<path fill-rule="evenodd" clip-rule="evenodd" d="M23.3145 7.80233L31.0516 0L61.9999 31.2093L54.2628 39.0116L36.0328 20.6278L36.0328 67H25.0909L25.0909 21.6195L7.73708 39.1196L0 31.3173L23.3164 7.80424L23.3145 7.80233Z"/>
</mask>
<path d="M31.0516 0L31.7617 -0.704131L31.0516 -1.42019L30.3415 -0.704131L31.0516 0ZM23.3145 7.80233L22.6045 7.0982L21.9062 7.80229L22.6044 8.50642L23.3145 7.80233ZM61.9999 31.2093L62.71 31.9134L63.4082 31.2093L62.71 30.5052L61.9999 31.2093ZM54.2628 39.0116L53.5528 39.7158L54.2628 40.4318L54.9729 39.7158L54.2628 39.0116ZM36.0328 20.6278L36.7428 19.9237L35.0328 18.1992V20.6278H36.0328ZM36.0328 67V68H37.0328V67H36.0328ZM25.0909 67H24.0909V68H25.0909V67ZM25.0909 21.6195H26.0909V19.1908L24.3808 20.9153L25.0909 21.6195ZM7.73708 39.1196L7.02701 39.8238L7.73708 40.5398L8.44715 39.8238L7.73708 39.1196ZM0 31.3173L-0.71007 30.6132L-1.40831 31.3173L-0.71007 32.0214L0 31.3173ZM23.3164 7.80424L24.0265 8.50837L24.7247 7.80428L24.0265 7.10015L23.3164 7.80424ZM30.3415 -0.704131L22.6045 7.0982L24.0246 8.50646L31.7617 0.704131L30.3415 -0.704131ZM62.71 30.5052L31.7617 -0.704131L30.3415 0.704131L61.2898 31.9134L62.71 30.5052ZM54.9729 39.7158L62.71 31.9134L61.2898 30.5052L53.5528 38.3075L54.9729 39.7158ZM35.3227 21.332L53.5528 39.7158L54.9729 38.3075L36.7428 19.9237L35.3227 21.332ZM37.0328 67L37.0328 20.6278H35.0328L35.0328 67H37.0328ZM25.0909 68H36.0328V66H25.0909V68ZM24.0909 21.6195L24.0909 67H26.0909L26.0909 21.6195H24.0909ZM24.3808 20.9153L7.02701 38.4155L8.44715 39.8238L25.801 22.3236L24.3808 20.9153ZM8.44715 38.4155L0.71007 30.6132L-0.71007 32.0214L7.02701 39.8238L8.44715 38.4155ZM0.71007 32.0214L24.0265 8.50837L22.6063 7.10011L-0.71007 30.6132L0.71007 32.0214ZM22.6044 8.50642L22.6063 8.50834L24.0265 7.10015L24.0246 7.09823L22.6044 8.50642Z" fill="#007C67" mask="url(#path-1-inside-1_121_961)"/>
</svg>
