<svg width="40" height="40" viewBox="0 0 40 40" fill="none" xmlns="http://www.w3.org/2000/svg">
<path d="M5.10634 12.5167C6.49302 9.75545 8.6203 7.43423 11.2504 5.81249C13.8805 4.19075 16.9098 3.3324 19.9997 3.33337C24.4913 3.33337 28.2647 4.98338 31.1497 7.67504L26.3713 12.455C24.643 10.8034 22.4463 9.96171 19.9997 9.96171C15.658 9.96171 11.983 12.895 10.6747 16.8334C10.3413 17.8334 10.1513 18.9 10.1513 20C10.1513 21.1 10.3413 22.1667 10.6747 23.1667C11.9847 27.1067 15.658 30.0384 19.9997 30.0384C22.2413 30.0384 24.1497 29.4467 25.643 28.4467C26.5087 27.8767 27.2499 27.1371 27.8217 26.2725C28.3935 25.408 28.784 24.4365 28.9697 23.4167H19.9997V16.97H35.6963C35.893 18.06 35.9997 19.1967 35.9997 20.3784C35.9997 25.455 34.183 29.7284 31.0297 32.6284C28.273 35.175 24.4997 36.6667 19.9997 36.6667C17.8107 36.6676 15.6431 36.2371 13.6206 35.3998C11.5981 34.5626 9.76043 33.3349 8.21261 31.7871C6.66479 30.2393 5.43717 28.4016 4.5999 26.3791C3.76263 24.3567 3.33213 22.189 3.33301 20C3.33301 17.31 3.97634 14.7667 5.10634 12.5167Z" fill="#FF0E0D"/>
</svg>
