<svg width="34" height="34" viewBox="0 0 34 34" fill="none" xmlns="http://www.w3.org/2000/svg">
<path d="M16.9997 12C15.6736 12 14.4018 12.5268 13.4641 13.4645C12.5265 14.4022 11.9997 15.674 11.9997 17C11.9997 18.3261 12.5265 19.5979 13.4641 20.5356C14.4018 21.4733 15.6736 22 16.9997 22C18.3258 22 19.5975 21.4733 20.5352 20.5356C21.4729 19.5979 21.9997 18.3261 21.9997 17C21.9997 15.674 21.4729 14.4022 20.5352 13.4645C19.5975 12.5268 18.3258 12 16.9997 12ZM16.9997 8.66671C19.2098 8.66671 21.3294 9.54468 22.8922 11.1075C24.455 12.6703 25.333 14.7899 25.333 17C25.333 19.2102 24.455 21.3298 22.8922 22.8926C21.3294 24.4554 19.2098 25.3334 16.9997 25.3334C14.7895 25.3334 12.6699 24.4554 11.1071 22.8926C9.54432 21.3298 8.66634 19.2102 8.66634 17C8.66634 14.7899 9.54432 12.6703 11.1071 11.1075C12.6699 9.54468 14.7895 8.66671 16.9997 8.66671V8.66671ZM27.833 8.25004C27.833 8.80258 27.6135 9.33248 27.2228 9.72318C26.8321 10.1139 26.3022 10.3334 25.7497 10.3334C25.1971 10.3334 24.6672 10.1139 24.2765 9.72318C23.8858 9.33248 23.6663 8.80258 23.6663 8.25004C23.6663 7.69751 23.8858 7.1676 24.2765 6.7769C24.6672 6.3862 25.1971 6.16671 25.7497 6.16671C26.3022 6.16671 26.8321 6.3862 27.2228 6.7769C27.6135 7.1676 27.833 7.69751 27.833 8.25004V8.25004ZM16.9997 3.66671C12.8763 3.66671 12.203 3.67837 10.2847 3.76337C8.97801 3.82504 8.10134 4.00004 7.28801 4.31671C6.56467 4.59671 6.04301 4.93171 5.48801 5.48837C4.96635 5.99237 4.56526 6.60768 4.31467 7.28837C3.99801 8.10504 3.82301 8.98004 3.76301 10.285C3.67634 12.125 3.66634 12.7684 3.66634 17C3.66634 21.1234 3.67801 21.7967 3.76301 23.715C3.82467 25.02 3.99967 25.8984 4.31467 26.71C4.59801 27.435 4.93134 27.9567 5.48467 28.51C6.04634 29.07 6.56801 29.405 7.28467 29.6817C8.10801 30 8.98468 30.1767 10.2847 30.2367C12.1247 30.3234 12.768 30.3334 16.9997 30.3334C21.123 30.3334 21.7963 30.3217 23.7147 30.2367C25.018 30.175 25.8963 30 26.7097 29.685C27.4313 29.4034 27.9563 29.0684 28.5097 28.515C29.0713 27.9534 29.4063 27.4317 29.683 26.715C29.9997 25.8934 30.1763 25.015 30.2363 23.715C30.323 21.875 30.333 21.2317 30.333 17C30.333 12.8767 30.3213 12.2034 30.2363 10.285C30.1747 8.98171 29.9997 8.10171 29.683 7.28837C29.4318 6.60838 29.0315 5.99331 28.5113 5.48837C28.0076 4.96645 27.3922 4.56532 26.7113 4.31504C25.8947 3.99837 25.018 3.82337 23.7147 3.76337C21.8747 3.67671 21.2313 3.66671 16.9997 3.66671ZM16.9997 0.333374C21.528 0.333374 22.093 0.350041 23.8697 0.433374C25.6447 0.516707 26.853 0.795041 27.9163 1.20837C29.0163 1.63171 29.943 2.20504 30.8697 3.13004C31.7172 3.9632 32.3729 4.97102 32.7913 6.08337C33.203 7.14504 33.483 8.35504 33.5663 10.13C33.6447 11.9067 33.6663 12.4717 33.6663 17C33.6663 21.5284 33.6497 22.0934 33.5663 23.87C33.483 25.645 33.203 26.8534 32.7913 27.9167C32.3741 29.0297 31.7182 30.0377 30.8697 30.87C30.0363 31.7172 29.0285 32.373 27.9163 32.7917C26.8547 33.2034 25.6447 33.4834 23.8697 33.5667C22.093 33.645 21.528 33.6667 16.9997 33.6667C12.4713 33.6667 11.9063 33.65 10.1297 33.5667C8.35467 33.4834 7.14634 33.2034 6.08301 32.7917C4.97022 32.3742 3.96222 31.7183 3.12967 30.87C2.28202 30.037 1.62623 29.0292 1.20801 27.9167C0.794675 26.855 0.516341 25.645 0.433008 23.87C0.354674 22.0934 0.333008 21.5284 0.333008 17C0.333008 12.4717 0.349674 11.9067 0.433008 10.13C0.516341 8.35337 0.794675 7.14671 1.20801 6.08337C1.62507 4.97034 2.28101 3.96224 3.12967 3.13004C3.96246 2.28209 4.97039 1.62626 6.08301 1.20837C7.14634 0.795041 8.35301 0.516707 10.1297 0.433374C11.9063 0.355041 12.4713 0.333374 16.9997 0.333374Z" fill="#FF0E0D"/>
</svg>
