<svg width="34" height="34" viewBox="0 0 34 34" fill="none" xmlns="http://www.w3.org/2000/svg">
<path d="M17.0002 0.333496C26.2052 0.333496 33.6668 7.79516 33.6668 17.0002C33.6668 18.2118 33.5385 19.3918 33.2918 20.5302L30.3218 17.5585C30.4441 14.6331 29.6001 11.7488 27.9199 9.35078C26.2398 6.95282 23.8171 5.17456 21.0258 4.29053C18.2345 3.40651 15.2297 3.46588 12.4755 4.45948C9.72128 5.45308 7.37069 7.32565 5.78661 9.78811C4.20254 12.2506 3.47307 15.166 3.71083 18.0843C3.94858 21.0026 5.14033 23.7615 7.1021 25.9351C9.06387 28.1087 11.6866 29.5761 14.5653 30.1108C17.444 30.6455 20.4187 30.2177 23.0302 28.8935C23.6663 29.9017 24.5613 30.7207 25.6218 31.2652C23.0222 32.8403 20.0398 33.6711 17.0002 33.6668C7.79516 33.6668 0.333496 26.2052 0.333496 17.0002C0.333496 7.79516 7.79516 0.333496 17.0002 0.333496ZM28.6668 20.6202L31.0235 22.9768C31.4823 23.4354 31.7973 24.0179 31.9298 24.6529C32.0624 25.2879 32.0069 25.9477 31.77 26.5516C31.5331 27.1555 31.1252 27.6771 30.5962 28.0525C30.0672 28.428 29.4402 28.6409 28.792 28.6653C28.1437 28.6896 27.5025 28.5243 26.9469 28.1895C26.3912 27.8548 25.9453 27.3653 25.6638 26.7809C25.3823 26.1964 25.2774 25.5426 25.362 24.8995C25.4467 24.2563 25.7171 23.6519 26.1402 23.1602L26.3102 22.9768L28.6668 20.6202ZM17.0002 22.0002C19.4435 22.0002 21.6418 23.0518 23.1668 24.7285L21.5918 26.1618C20.2752 25.6368 18.6968 25.3335 17.0002 25.3335C15.3035 25.3335 13.7252 25.6385 12.4085 26.1602L10.8335 24.7268C11.6139 23.8667 12.5658 23.1797 13.6279 22.7101C14.6901 22.2405 15.8388 21.9986 17.0002 22.0002ZM11.1668 13.6668C11.8299 13.6668 12.4658 13.9302 12.9346 14.3991C13.4034 14.8679 13.6668 15.5038 13.6668 16.1668C13.6668 16.8299 13.4034 17.4658 12.9346 17.9346C12.4658 18.4034 11.8299 18.6668 11.1668 18.6668C10.5038 18.6668 9.8679 18.4034 9.39906 17.9346C8.93022 17.4658 8.66683 16.8299 8.66683 16.1668C8.66683 15.5038 8.93022 14.8679 9.39906 14.3991C9.8679 13.9302 10.5038 13.6668 11.1668 13.6668ZM22.8335 13.6668C23.4965 13.6668 24.1324 13.9302 24.6013 14.3991C25.0701 14.8679 25.3335 15.5038 25.3335 16.1668C25.3335 16.8299 25.0701 17.4658 24.6013 17.9346C24.1324 18.4034 23.4965 18.6668 22.8335 18.6668C22.1705 18.6668 21.5346 18.4034 21.0657 17.9346C20.5969 17.4658 20.3335 16.8299 20.3335 16.1668C20.3335 15.5038 20.5969 14.8679 21.0657 14.3991C21.5346 13.9302 22.1705 13.6668 22.8335 13.6668Z" fill="#007C67"/>
</svg>
