<svg width="34" height="34" viewBox="0 0 34 34" fill="none" xmlns="http://www.w3.org/2000/svg">
<path d="M16.9997 33.6667C7.79468 33.6667 0.333008 26.205 0.333008 17C0.333008 7.79504 7.79468 0.333374 16.9997 0.333374C26.2047 0.333374 33.6663 7.79504 33.6663 17C33.6663 26.205 26.2047 33.6667 16.9997 33.6667ZM11.8163 18.95L11.838 18.9384L13.288 23.7217C13.4747 24.24 13.7313 24.3334 14.043 24.29C14.3563 24.2484 14.5213 24.08 14.7263 23.8834L16.7063 21.97L20.9563 25.1167C21.733 25.545 22.2913 25.3234 22.4847 24.3967L25.2463 11.36C25.5513 10.1467 25.018 9.66004 24.0763 10.0467L7.85467 16.3134C6.74801 16.7567 6.75467 17.3767 7.65468 17.6517L11.8163 18.9517V18.95Z" fill="#FF0E0D"/>
</svg>
