<svg width="36" height="24" viewBox="0 0 36 24" fill="none" xmlns="http://www.w3.org/2000/svg">
<path d="M0.5 0.75V9.5H1.75C3.2375 9.5 4.25 10.5125 4.25 12C4.25 13.4875 3.2375 14.5 1.75 14.5H0.5V23.25H35.5V14.5H34.25C32.7625 14.5 31.75 13.4875 31.75 12C31.75 10.5125 32.7625 9.5 34.25 9.5H35.5V0.75H0.5ZM3 3.25H33V7.235C30.8563 7.7975 29.25 9.67875 29.25 12C29.25 14.3212 30.8563 16.2025 33 16.7663V20.75H3V16.765C5.14375 16.2025 6.75 14.3212 6.75 12C6.75 9.67875 5.14375 7.7975 3 7.23375V3.25Z" fill="#007C67"/>
</svg>
