<svg width="35" height="28" viewBox="0 0 35 28" fill="none" xmlns="http://www.w3.org/2000/svg">
<path d="M34.9365 3.42667C33.6641 3.98949 32.3148 4.35912 30.9332 4.52333C32.3894 3.65239 33.4794 2.28169 33.9998 0.666666C32.6332 1.48 31.1348 2.05 29.5732 2.35833C28.5242 1.23596 27.1338 0.491605 25.6181 0.240974C24.1024 -0.0096564 22.5464 0.247485 21.192 0.972421C19.8375 1.69736 18.7605 2.84947 18.1284 4.24965C17.4962 5.64984 17.3444 7.21963 17.6965 8.715C14.925 8.57609 12.2137 7.85587 9.73865 6.60111C7.26358 5.34634 5.08006 3.58508 3.32984 1.43167C2.71033 2.49575 2.38477 3.70538 2.38651 4.93667C2.38651 7.35333 3.61651 9.48833 5.48651 10.7383C4.37986 10.7035 3.29756 10.4046 2.32984 9.86667V9.95333C2.33018 11.5628 2.88713 13.1227 3.90626 14.3684C4.92539 15.6142 6.34398 16.4691 7.92151 16.7883C6.8942 17.0667 5.81702 17.1078 4.77151 16.9083C5.21629 18.2937 6.08319 19.5053 7.25083 20.3735C8.41847 21.2417 9.82839 21.723 11.2832 21.75C9.83731 22.8855 8.18181 23.725 6.41131 24.2203C4.64082 24.7156 2.79006 24.8571 0.964844 24.6367C4.15101 26.6857 7.86 27.7735 11.6482 27.77C24.4698 27.77 31.4815 17.1483 31.4815 7.93667C31.4815 7.63667 31.4732 7.33333 31.4598 7.03667C32.8246 6.05028 34.0025 4.82837 34.9382 3.42833L34.9365 3.42667Z" fill="#FF0E0D"/>
</svg>
