<svg width="20" height="20" viewBox="0 0 20 20" fill="none" xmlns="http://www.w3.org/2000/svg">
<path d="M1.33333 0.25H18.6667C18.954 0.25 19.2295 0.364137 19.4327 0.567301C19.6359 0.770465 19.75 1.04602 19.75 1.33333V18.6667C19.75 18.954 19.6359 19.2295 19.4327 19.4327C19.2295 19.6359 18.954 19.75 18.6667 19.75H1.33333C1.04602 19.75 0.770465 19.6359 0.567301 19.4327C0.364137 19.2295 0.25 18.954 0.25 18.6667V1.33333C0.25 1.04602 0.364137 0.770465 0.567301 0.567301C0.770465 0.364137 1.04602 0.25 1.33333 0.25V0.25ZM2.41667 2.41667V17.5833H17.5833V2.41667H2.41667ZM8.91667 8.91667V4.58333H11.0833V8.91667H15.4167V11.0833H11.0833V15.4167H8.91667V11.0833H4.58333V8.91667H8.91667Z" fill="#007C67"/>
</svg>
