<svg width="32" height="33" viewBox="0 0 32 33" fill="none" xmlns="http://www.w3.org/2000/svg">
<path d="M23.9165 3.75016H30.2498C30.6698 3.75016 31.0725 3.91698 31.3694 4.21391C31.6664 4.51084 31.8332 4.91357 31.8332 5.3335V30.6668C31.8332 31.0868 31.6664 31.4895 31.3694 31.7864C31.0725 32.0833 30.6698 32.2502 30.2498 32.2502H1.74984C1.32991 32.2502 0.927184 32.0833 0.630251 31.7864C0.333319 31.4895 0.166504 31.0868 0.166504 30.6668V5.3335C0.166504 4.91357 0.333319 4.51084 0.630251 4.21391C0.927184 3.91698 1.32991 3.75016 1.74984 3.75016H8.08317V0.583496H11.2498V3.75016H20.7498V0.583496H23.9165V3.75016ZM28.6665 16.4168H3.33317V29.0835H28.6665V16.4168ZM20.7498 6.91683H11.2498V10.0835H8.08317V6.91683H3.33317V13.2502H28.6665V6.91683H23.9165V10.0835H20.7498V6.91683ZM6.49984 19.5835H9.6665V22.7502H6.49984V19.5835ZM14.4165 19.5835H17.5832V22.7502H14.4165V19.5835ZM22.3332 19.5835H25.4998V22.7502H22.3332V19.5835Z" fill="#007C67"/>
</svg>
