<svg width="346" height="199" viewBox="0 0 346 199" fill="none" xmlns="http://www.w3.org/2000/svg">
<path d="M18.64 178.696C14.9748 178.696 12.168 177.652 10.2194 175.564C8.31721 173.477 7.36612 170.53 7.36612 166.726V140.56C7.36612 136.755 8.31721 133.809 10.2194 131.721C12.168 129.634 14.9748 128.59 18.64 128.59C22.3052 128.59 25.0888 129.634 26.991 131.721C28.9396 133.809 29.9139 136.755 29.9139 140.56V145.709H22.6763V140.072C22.6763 137.057 21.4005 135.549 18.8488 135.549C16.2971 135.549 15.0212 137.057 15.0212 140.072V167.283C15.0212 170.252 16.2971 171.737 18.8488 171.737C21.4005 171.737 22.6763 170.252 22.6763 167.283V159.837H29.9139V166.726C29.9139 170.53 28.9396 173.477 26.991 175.564C25.0888 177.652 22.3052 178.696 18.64 178.696ZM45.6286 178.696C41.917 178.696 39.087 177.652 37.1384 175.564C35.1898 173.43 34.2155 170.391 34.2155 166.448V129.286H41.8706V167.004C41.8706 168.675 42.1954 169.881 42.8449 170.623C43.5408 171.366 44.5151 171.737 45.7678 171.737C47.0204 171.737 47.9715 171.366 48.621 170.623C49.317 169.881 49.6649 168.675 49.6649 167.004V129.286H57.0416V166.448C57.0416 170.391 56.0674 173.43 54.1188 175.564C52.1702 177.652 49.3401 178.696 45.6286 178.696ZM62.4937 129.286H74.046C77.9895 129.286 80.866 130.214 82.6754 132.069C84.4848 133.879 85.3894 136.686 85.3894 140.49V142.439C85.3894 144.944 84.9719 146.985 84.1368 148.563C83.3481 150.14 82.1186 151.277 80.4484 151.973V152.112C84.2528 153.411 86.155 156.798 86.155 162.272V166.448C86.155 170.206 85.1575 173.082 83.1625 175.077C81.2139 177.026 78.3375 178 74.5331 178H62.4937V129.286ZM73.1413 149.119C74.6723 149.119 75.809 148.725 76.5513 147.936C77.34 147.148 77.7343 145.825 77.7343 143.97V141.256C77.7343 139.493 77.4096 138.217 76.7601 137.428C76.1569 136.639 75.1826 136.245 73.8372 136.245H70.1488V149.119H73.1413ZM74.5331 171.041C75.8786 171.041 76.876 170.693 77.5256 169.997C78.1751 169.255 78.4999 168.002 78.4999 166.239V161.994C78.4999 159.767 78.1055 158.236 77.3168 157.401C76.5745 156.519 75.3218 156.079 73.5588 156.079H70.1488V171.041H74.5331ZM90.6295 129.286H98.2846V178H90.6295V129.286ZM113.969 178.696C110.258 178.696 107.451 177.652 105.549 175.564C103.647 173.43 102.696 170.391 102.696 166.448V163.664H109.933V167.004C109.933 170.159 111.255 171.737 113.9 171.737C115.199 171.737 116.173 171.366 116.823 170.623C117.519 169.835 117.867 168.582 117.867 166.865C117.867 164.824 117.403 163.038 116.475 161.507C115.547 159.929 113.83 158.05 111.325 155.87C108.17 153.086 105.966 150.581 104.714 148.354C103.461 146.081 102.835 143.529 102.835 140.699C102.835 136.848 103.809 133.879 105.758 131.791C107.706 129.657 110.536 128.59 114.248 128.59C117.913 128.59 120.673 129.657 122.529 131.791C124.431 133.879 125.382 136.894 125.382 140.838V142.856H118.145V140.351C118.145 138.681 117.82 137.474 117.171 136.732C116.521 135.943 115.57 135.549 114.317 135.549C111.766 135.549 110.49 137.103 110.49 140.212C110.49 141.975 110.954 143.622 111.882 145.153C112.856 146.684 114.596 148.539 117.101 150.72C120.302 153.504 122.506 156.032 123.712 158.306C124.919 160.579 125.522 163.247 125.522 166.309C125.522 170.299 124.524 173.361 122.529 175.495C120.581 177.629 117.727 178.696 113.969 178.696ZM135.896 136.245H127.893V129.286H151.554V136.245H143.551V178H135.896V136.245ZM166.406 129.286H177.332L182.203 164.151H182.342L187.214 129.286H198.14V178H190.902V141.116H190.763L185.196 178H178.793L173.226 141.116H173.087V178H166.406V129.286ZM214.987 178.696C211.275 178.696 208.445 177.652 206.497 175.564C204.548 173.43 203.574 170.391 203.574 166.448V129.286H211.229V167.004C211.229 168.675 211.554 169.881 212.203 170.623C212.899 171.366 213.873 171.737 215.126 171.737C216.379 171.737 217.33 171.366 217.979 170.623C218.675 169.881 219.023 168.675 219.023 167.004V129.286H226.4V166.448C226.4 170.391 225.426 173.43 223.477 175.564C221.528 177.652 218.698 178.696 214.987 178.696ZM241.804 178.696C238.092 178.696 235.285 177.652 233.383 175.564C231.481 173.43 230.53 170.391 230.53 166.448V163.664H237.767V167.004C237.767 170.159 239.09 171.737 241.734 171.737C243.033 171.737 244.007 171.366 244.657 170.623C245.353 169.835 245.701 168.582 245.701 166.865C245.701 164.824 245.237 163.038 244.309 161.507C243.381 159.929 241.664 158.05 239.159 155.87C236.004 153.086 233.801 150.581 232.548 148.354C231.295 146.081 230.669 143.529 230.669 140.699C230.669 136.848 231.643 133.879 233.592 131.791C235.54 129.657 238.37 128.59 242.082 128.59C245.747 128.59 248.508 129.657 250.363 131.791C252.266 133.879 253.217 136.894 253.217 140.838V142.856H245.979V140.351C245.979 138.681 245.654 137.474 245.005 136.732C244.355 135.943 243.404 135.549 242.152 135.549C239.6 135.549 238.324 137.103 238.324 140.212C238.324 141.975 238.788 143.622 239.716 145.153C240.69 146.684 242.43 148.539 244.935 150.72C248.136 153.504 250.34 156.032 251.546 158.306C252.753 160.579 253.356 163.247 253.356 166.309C253.356 170.299 252.358 173.361 250.363 175.495C248.415 177.629 245.562 178.696 241.804 178.696ZM257.745 129.286H278.623V136.245H265.4V149.119H275.909V156.079H265.4V171.041H278.623V178H257.745V129.286ZM294.161 178.696C290.45 178.696 287.62 177.652 285.671 175.564C283.722 173.43 282.748 170.391 282.748 166.448V129.286H290.403V167.004C290.403 168.675 290.728 169.881 291.377 170.623C292.073 171.366 293.048 171.737 294.3 171.737C295.553 171.737 296.504 171.366 297.154 170.623C297.85 169.881 298.197 168.675 298.197 167.004V129.286H305.574V166.448C305.574 170.391 304.6 173.43 302.651 175.564C300.703 177.652 297.873 178.696 294.161 178.696ZM311.026 129.286H321.952L326.824 164.151H326.963L331.834 129.286H342.76V178H335.523V141.116H335.383L329.816 178H323.414L317.846 141.116H317.707V178H311.026V129.286Z" fill="black"/>
<rect x="7" y="15" width="100" height="100" fill="#FF0E0D"/>
<path d="M57 100.059L21.825 100.059L24.371 108.233L20.954 109.506L15.192 98.518L15.192 94.431L57 94.431L57 100.059ZM57.67 66.291C57.67 68.3903 57.3797 70.311 56.799 72.053C56.1737 73.795 55.2133 75.3807 53.918 76.81L49.831 73.594L49.295 73.125L49.63 72.723C49.9873 72.6783 50.3223 72.5667 50.635 72.388C50.903 72.2093 51.2827 71.852 51.774 71.316C52.176 70.646 52.4887 69.9537 52.712 69.239C52.8907 68.4797 52.98 67.631 52.98 66.693C52.98 65.0403 52.511 63.6333 51.573 62.472C50.635 61.266 49.362 60.2833 47.754 59.524C46.146 58.7647 44.3147 58.184 42.26 57.782C40.2053 57.38 38.0613 57.179 35.828 57.179C32.076 57.179 29.0163 57.447 26.649 57.983C24.237 58.519 22.4727 59.3677 21.356 60.529C20.1947 61.6457 19.614 63.075 19.614 64.817C19.614 65.889 19.815 66.8717 20.217 67.765C20.619 68.6583 21.222 69.44 22.026 70.11C22.83 70.7353 23.7903 71.2267 24.907 71.584C26.0237 71.8967 27.2967 72.053 28.726 72.053C29.9767 72.053 31.1157 71.8743 32.143 71.517C33.1257 71.115 33.9743 70.579 34.689 69.909C35.359 69.239 35.8727 68.4797 36.23 67.631C36.5873 66.7377 36.766 65.7997 36.766 64.817C36.766 63.3877 36.6097 62.1593 36.297 61.132C35.9843 60.1047 35.4483 59.1667 34.689 58.318C33.9297 57.4247 32.9247 56.6207 31.674 55.906L37.034 55.437C37.9273 56.1963 38.709 57.045 39.379 57.983C40.049 58.921 40.585 59.993 40.987 61.199C41.3443 62.3603 41.523 63.6557 41.523 65.085C41.523 66.827 41.2327 68.4573 40.652 69.976C40.0267 71.4947 39.1557 72.8123 38.039 73.929C36.8777 75.0457 35.5153 75.9167 33.952 76.542C32.344 77.1227 30.5797 77.413 28.659 77.413C26.6937 77.413 24.8847 77.1003 23.232 76.475C21.5347 75.805 20.0607 74.9117 18.81 73.795C17.5593 72.6337 16.599 71.2937 15.929 69.775C15.2143 68.2563 14.857 66.626 14.857 64.884C14.857 62.1593 15.6163 59.8367 17.135 57.916C18.6537 55.9507 20.7753 54.4543 23.5 53.427C26.2247 52.3997 29.4407 51.886 33.148 51.886C38.5973 51.886 43.131 52.4667 46.749 53.628C50.367 54.7447 53.0917 56.375 54.923 58.519C56.7097 60.663 57.6253 63.2537 57.67 66.291Z" fill="black"/>
<path d="M66.387 40.235L77.334 26.582L78.236 28.878L67.289 42.408L66.387 40.235ZM72.25 47.451C70.528 47.451 69.052 46.9453 67.822 45.934C66.6193 44.9227 65.69 43.4467 65.034 41.506C64.378 39.538 64.05 37.16 64.05 34.372C64.05 31.6387 64.378 29.3017 65.034 27.361C65.69 25.393 66.6193 23.876 67.822 22.81C69.052 21.744 70.528 21.211 72.25 21.211C73.972 21.211 75.4343 21.744 76.637 22.81C77.867 23.876 78.81 25.393 79.466 27.361C80.122 29.3017 80.45 31.6387 80.45 34.372C80.45 37.16 80.122 39.538 79.466 41.506C78.81 43.4467 77.867 44.9227 76.637 45.934C75.4343 46.9453 73.972 47.451 72.25 47.451ZM72.25 44.622C73.2613 44.622 74.1223 44.2257 74.833 43.433C75.5437 42.6403 76.0903 41.4787 76.473 39.948C76.8557 38.4173 77.047 36.5587 77.047 34.372C77.047 32.2673 76.8557 30.4633 76.473 28.96C76.0903 27.4293 75.5437 26.2403 74.833 25.393C74.1223 24.5457 73.2613 24.122 72.25 24.122C71.2387 24.122 70.3777 24.5457 69.667 25.393C68.9563 26.2403 68.4097 27.4293 68.027 28.96C67.6443 30.4633 67.453 32.2673 67.453 34.372C67.453 36.5587 67.6443 38.4173 68.027 39.948C68.4097 41.4787 68.9563 42.6403 69.667 43.433C70.3777 44.2257 71.2387 44.622 72.25 44.622ZM88.445 47C89.2377 44.4307 90.044 41.9023 90.864 39.415C91.7113 36.9277 92.5723 34.454 93.447 31.994C94.349 29.534 95.2783 27.0603 96.235 24.573H85.534V21.457H100.376V23.384C99.6107 25.2973 98.8453 27.2243 98.08 29.165C97.342 31.1057 96.6313 33.06 95.948 35.028C95.2647 36.996 94.6087 38.9777 93.98 40.973C93.3787 42.941 92.7773 44.95 92.176 47H88.445Z" fill="black"/>
<rect x="243" y="15" width="100" height="100" fill="#FF0E0D"/>
<path d="M270 108.087L253.725 108.087L254.903 111.869L253.322 112.458L250.656 107.374L250.656 105.483L270 105.483L270 108.087ZM270.31 92.463C270.31 93.4343 270.176 94.323 269.907 95.129C269.618 95.935 269.173 96.6687 268.574 97.33L266.683 95.842L266.435 95.625L266.59 95.439C266.755 95.4183 266.91 95.3667 267.055 95.284C267.179 95.2013 267.355 95.036 267.582 94.788C267.768 94.478 267.913 94.1577 268.016 93.827C268.099 93.4757 268.14 93.083 268.14 92.649C268.14 91.8843 267.923 91.2333 267.489 90.696C267.055 90.138 266.466 89.6833 265.722 89.332C264.978 88.9807 264.131 88.712 263.18 88.526C262.229 88.34 261.237 88.247 260.204 88.247C258.468 88.247 257.052 88.371 255.957 88.619C254.841 88.867 254.025 89.2597 253.508 89.797C252.971 90.3137 252.702 90.975 252.702 91.781C252.702 92.277 252.795 92.7317 252.981 93.145C253.167 93.5583 253.446 93.92 253.818 94.23C254.19 94.5193 254.634 94.7467 255.151 94.912C255.668 95.0567 256.257 95.129 256.918 95.129C257.497 95.129 258.024 95.0463 258.499 94.881C258.954 94.695 259.346 94.447 259.677 94.137C259.987 93.827 260.225 93.4757 260.39 93.083C260.555 92.6697 260.638 92.2357 260.638 91.781C260.638 91.1197 260.566 90.5513 260.421 90.076C260.276 89.6007 260.028 89.1667 259.677 88.774C259.326 88.3607 258.861 87.9887 258.282 87.658L260.762 87.441C261.175 87.7923 261.537 88.185 261.847 88.619C262.157 89.053 262.405 89.549 262.591 90.107C262.756 90.6443 262.839 91.2437 262.839 91.905C262.839 92.711 262.705 93.4653 262.436 94.168C262.147 94.8707 261.744 95.4803 261.227 95.997C260.69 96.5137 260.059 96.9167 259.336 97.206C258.592 97.4747 257.776 97.609 256.887 97.609C255.978 97.609 255.141 97.4643 254.376 97.175C253.591 96.865 252.909 96.4517 252.33 95.935C251.751 95.3977 251.307 94.7777 250.997 94.075C250.666 93.3723 250.501 92.618 250.501 91.812C250.501 90.5513 250.852 89.4767 251.555 88.588C252.258 87.6787 253.239 86.9863 254.5 86.511C255.761 86.0357 257.249 85.798 258.964 85.798C261.485 85.798 263.583 86.0667 265.257 86.604C266.931 87.1207 268.192 87.875 269.039 88.867C269.866 89.859 270.289 91.0577 270.31 92.463Z" fill="black"/>
<path d="M257.63 62.15L281.66 32.18L283.64 37.22L259.61 66.92L257.63 62.15ZM270.5 77.99C266.72 77.99 263.48 76.88 260.78 74.66C258.14 72.44 256.1 69.2 254.66 64.94C253.22 60.62 252.5 55.4 252.5 49.28C252.5 43.28 253.22 38.15 254.66 33.89C256.1 29.57 258.14 26.24 260.78 23.9C263.48 21.56 266.72 20.39 270.5 20.39C274.28 20.39 277.49 21.56 280.13 23.9C282.83 26.24 284.9 29.57 286.34 33.89C287.78 38.15 288.5 43.28 288.5 49.28C288.5 55.4 287.78 60.62 286.34 64.94C284.9 69.2 282.83 72.44 280.13 74.66C277.49 76.88 274.28 77.99 270.5 77.99ZM270.5 71.78C272.72 71.78 274.61 70.91 276.17 69.17C277.73 67.43 278.93 64.88 279.77 61.52C280.61 58.16 281.03 54.08 281.03 49.28C281.03 44.66 280.61 40.7 279.77 37.4C278.93 34.04 277.73 31.43 276.17 29.57C274.61 27.71 272.72 26.78 270.5 26.78C268.28 26.78 266.39 27.71 264.83 29.57C263.27 31.43 262.07 34.04 261.23 37.4C260.39 40.7 259.97 44.66 259.97 49.28C259.97 54.08 260.39 58.16 261.23 61.52C262.07 64.88 263.27 67.43 264.83 69.17C266.39 70.91 268.28 71.78 270.5 71.78ZM306.05 77C307.79 71.36 309.56 65.81 311.36 60.35C313.22 54.89 315.11 49.46 317.03 44.06C319.01 38.66 321.05 33.23 323.15 27.77H299.66V20.93H332.24V25.16C330.56 29.36 328.88 33.59 327.2 37.85C325.58 42.11 324.02 46.4 322.52 50.72C321.02 55.04 319.58 59.39 318.2 63.77C316.88 68.09 315.56 72.5 314.24 77H306.05Z" fill="black"/>
<rect x="125" y="15" width="100" height="100" fill="#FF0E0D"/>
<path d="M155 72.195L136.625 72.195L137.955 76.465L136.17 77.13L133.16 71.39L133.16 69.255L155 69.255L155 72.195ZM155.35 54.555C155.35 55.6517 155.198 56.655 154.895 57.565C154.568 58.475 154.067 59.3033 153.39 60.05L151.255 58.37L150.975 58.125L151.15 57.915C151.337 57.8917 151.512 57.8333 151.675 57.74C151.815 57.6467 152.013 57.46 152.27 57.18C152.48 56.83 152.643 56.4683 152.76 56.095C152.853 55.6983 152.9 55.255 152.9 54.765C152.9 53.9017 152.655 53.1667 152.165 52.56C151.675 51.93 151.01 51.4167 150.17 51.02C149.33 50.6233 148.373 50.32 147.3 50.11C146.227 49.9 145.107 49.795 143.94 49.795C141.98 49.795 140.382 49.935 139.145 50.215C137.885 50.495 136.963 50.9383 136.38 51.545C135.773 52.1283 135.47 52.875 135.47 53.785C135.47 54.345 135.575 54.8583 135.785 55.325C135.995 55.7917 136.31 56.2 136.73 56.55C137.15 56.8767 137.652 57.1333 138.235 57.32C138.818 57.4833 139.483 57.565 140.23 57.565C140.883 57.565 141.478 57.4717 142.015 57.285C142.528 57.075 142.972 56.795 143.345 56.445C143.695 56.095 143.963 55.6983 144.15 55.255C144.337 54.7883 144.43 54.2983 144.43 53.785C144.43 53.0383 144.348 52.3967 144.185 51.86C144.022 51.3233 143.742 50.8333 143.345 50.39C142.948 49.9233 142.423 49.5033 141.77 49.13L144.57 48.885C145.037 49.2817 145.445 49.725 145.795 50.215C146.145 50.705 146.425 51.265 146.635 51.895C146.822 52.5017 146.915 53.1783 146.915 53.925C146.915 54.835 146.763 55.6867 146.46 56.48C146.133 57.2733 145.678 57.9617 145.095 58.545C144.488 59.1283 143.777 59.5833 142.96 59.91C142.12 60.2133 141.198 60.365 140.195 60.365C139.168 60.365 138.223 60.2017 137.36 59.875C136.473 59.525 135.703 59.0583 135.05 58.475C134.397 57.8683 133.895 57.1683 133.545 56.375C133.172 55.5817 132.985 54.73 132.985 53.82C132.985 52.3967 133.382 51.1833 134.175 50.18C134.968 49.1533 136.077 48.3717 137.5 47.835C138.923 47.2983 140.603 47.03 142.54 47.03C145.387 47.03 147.755 47.3333 149.645 47.94C151.535 48.5233 152.958 49.375 153.915 50.495C154.848 51.615 155.327 52.9683 155.35 54.555Z" fill="black"/>
<path d="M132.745 37.225L142.09 25.57L142.86 27.53L133.515 39.08L132.745 37.225ZM137.75 43.385C136.28 43.385 135.02 42.9533 133.97 42.09C132.943 41.2267 132.15 39.9667 131.59 38.31C131.03 36.63 130.75 34.6 130.75 32.22C130.75 29.8867 131.03 27.8917 131.59 26.235C132.15 24.555 132.943 23.26 133.97 22.35C135.02 21.44 136.28 20.985 137.75 20.985C139.22 20.985 140.468 21.44 141.495 22.35C142.545 23.26 143.35 24.555 143.91 26.235C144.47 27.8917 144.75 29.8867 144.75 32.22C144.75 34.6 144.47 36.63 143.91 38.31C143.35 39.9667 142.545 41.2267 141.495 42.09C140.468 42.9533 139.22 43.385 137.75 43.385ZM137.75 40.97C138.613 40.97 139.348 40.6317 139.955 39.955C140.562 39.2783 141.028 38.2867 141.355 36.98C141.682 35.6733 141.845 34.0867 141.845 32.22C141.845 30.4233 141.682 28.8833 141.355 27.6C141.028 26.2933 140.562 25.2783 139.955 24.555C139.348 23.8317 138.613 23.47 137.75 23.47C136.887 23.47 136.152 23.8317 135.545 24.555C134.938 25.2783 134.472 26.2933 134.145 27.6C133.818 28.8833 133.655 30.4233 133.655 32.22C133.655 34.0867 133.818 35.6733 134.145 36.98C134.472 38.2867 134.938 39.2783 135.545 39.955C136.152 40.6317 136.887 40.97 137.75 40.97ZM151.575 43C152.252 40.8067 152.94 38.6483 153.64 36.525C154.363 34.4017 155.098 32.29 155.845 30.19C156.615 28.09 157.408 25.9783 158.225 23.855H149.09V21.195H161.76V22.84C161.107 24.4733 160.453 26.1183 159.8 27.775C159.17 29.4317 158.563 31.1 157.98 32.78C157.397 34.46 156.837 36.1517 156.3 37.855C155.787 39.535 155.273 41.25 154.76 43H151.575Z" fill="black"/>
</svg>
