<svg width="34" height="28" viewBox="0 0 34 28" fill="none" xmlns="http://www.w3.org/2000/svg">
<path d="M32.9047 4.82996C33.6663 7.79996 33.6663 14 33.6663 14C33.6663 14 33.6663 20.2 32.9047 23.17C32.4813 24.8116 31.243 26.1033 29.6747 26.54C26.8263 27.3333 16.9997 27.3333 16.9997 27.3333C16.9997 27.3333 7.17801 27.3333 4.32467 26.54C2.74967 26.0966 1.51301 24.8066 1.09467 23.17C0.333008 20.2 0.333008 14 0.333008 14C0.333008 14 0.333008 7.79996 1.09467 4.82996C1.51801 3.18829 2.75634 1.89663 4.32467 1.45996C7.17801 0.666626 16.9997 0.666626 16.9997 0.666626C16.9997 0.666626 26.8263 0.666626 29.6747 1.45996C31.2497 1.90329 32.4863 3.19329 32.9047 4.82996V4.82996ZM13.6663 19.8333L23.6663 14L13.6663 8.16663V19.8333Z" fill="#FF0E0D"/>
</svg>
