<svg width="30" height="35" viewBox="0 0 30 35" fill="none" xmlns="http://www.w3.org/2000/svg">
<path d="M15 30.0919L22.8375 22.2544C24.3874 20.7043 25.4429 18.7294 25.8705 16.5795C26.298 14.4296 26.0785 12.2011 25.2396 10.176C24.4007 8.15085 22.9801 6.41994 21.1575 5.20213C19.3348 3.98433 17.192 3.33433 15 3.33433C12.808 3.33433 10.6652 3.98433 8.84255 5.20213C7.01993 6.41994 5.59935 8.15085 4.76045 10.176C3.92155 12.2011 3.70199 14.4296 4.12955 16.5795C4.55711 18.7294 5.61259 20.7043 7.16251 22.2544L15 30.0919ZM15 34.5695L4.92367 24.4932C2.93079 22.5003 1.57363 19.9612 1.0238 17.197C0.473978 14.4327 0.756186 11.5675 1.83474 8.96371C2.91329 6.35988 4.73975 4.13434 7.08315 2.56854C9.42654 1.00274 12.1816 0.166992 15 0.166992C17.8184 0.166992 20.5735 1.00274 22.9169 2.56854C25.2603 4.13434 27.0867 6.35988 28.1653 8.96371C29.2438 11.5675 29.526 14.4327 28.9762 17.197C28.4264 19.9612 27.0692 22.5003 25.0763 24.4932L15 34.5695ZM15 17.5835C15.8399 17.5835 16.6453 17.2499 17.2392 16.656C17.833 16.0622 18.1667 15.2567 18.1667 14.4169C18.1667 13.577 17.833 12.7716 17.2392 12.1777C16.6453 11.5838 15.8399 11.2502 15 11.2502C14.1602 11.2502 13.3547 11.5838 12.7608 12.1777C12.167 12.7716 11.8333 13.577 11.8333 14.4169C11.8333 15.2567 12.167 16.0622 12.7608 16.656C13.3547 17.2499 14.1602 17.5835 15 17.5835ZM15 20.7502C13.3203 20.7502 11.7094 20.0829 10.5217 18.8952C9.33393 17.7075 8.66667 16.0966 8.66667 14.4169C8.66667 12.7372 9.33393 11.1263 10.5217 9.93852C11.7094 8.75079 13.3203 8.08353 15 8.08353C16.6797 8.08353 18.2906 8.75079 19.4783 9.93852C20.6661 11.1263 21.3333 12.7372 21.3333 14.4169C21.3333 16.0966 20.6661 17.7075 19.4783 18.8952C18.2906 20.0829 16.6797 20.7502 15 20.7502Z" fill="#007C67"/>
</svg>
