<svg width="336" height="164" viewBox="0 0 336 164" fill="none" xmlns="http://www.w3.org/2000/svg">
<g clip-path="url(#clip0_386_1851)">
<path d="M11.64 163.696C7.97483 163.696 5.16796 162.652 3.21939 160.564C1.31721 158.477 0.366123 155.53 0.366123 151.726V125.56C0.366123 121.755 1.31721 118.809 3.21939 116.721C5.16796 114.634 7.97483 113.59 11.64 113.59C15.3052 113.59 18.0888 114.634 19.991 116.721C21.9396 118.809 22.9139 121.755 22.9139 125.56V130.709H15.6763V125.072C15.6763 122.057 14.4005 120.549 11.8488 120.549C9.29708 120.549 8.02122 122.057 8.02122 125.072V152.283C8.02122 155.252 9.29708 156.737 11.8488 156.737C14.4005 156.737 15.6763 155.252 15.6763 152.283V144.837H22.9139V151.726C22.9139 155.53 21.9396 158.477 19.991 160.564C18.0888 162.652 15.3052 163.696 11.64 163.696ZM38.6286 163.696C34.917 163.696 32.087 162.652 30.1384 160.564C28.1898 158.43 27.2155 155.391 27.2155 151.448V114.286H34.8706V152.004C34.8706 153.675 35.1954 154.881 35.8449 155.623C36.5408 156.366 37.5151 156.737 38.7678 156.737C40.0204 156.737 40.9715 156.366 41.621 155.623C42.317 154.881 42.6649 153.675 42.6649 152.004V114.286H50.0416V151.448C50.0416 155.391 49.0674 158.43 47.1188 160.564C45.1702 162.652 42.3401 163.696 38.6286 163.696ZM55.4937 114.286H67.046C70.9895 114.286 73.866 115.214 75.6754 117.069C77.4848 118.879 78.3894 121.686 78.3894 125.49V127.439C78.3894 129.944 77.9719 131.985 77.1368 133.563C76.3481 135.14 75.1186 136.277 73.4484 136.973V137.112C77.2528 138.411 79.155 141.798 79.155 147.272V151.448C79.155 155.206 78.1575 158.082 76.1625 160.077C74.2139 162.026 71.3375 163 67.5331 163H55.4937V114.286ZM66.1413 134.119C67.6723 134.119 68.809 133.725 69.5513 132.936C70.34 132.148 70.7343 130.825 70.7343 128.97V126.256C70.7343 124.493 70.4096 123.217 69.7601 122.428C69.1569 121.639 68.1826 121.245 66.8372 121.245H63.1488V134.119H66.1413ZM67.5331 156.041C68.8786 156.041 69.876 155.693 70.5256 154.997C71.1751 154.255 71.4999 153.002 71.4999 151.239V146.994C71.4999 144.767 71.1055 143.236 70.3168 142.401C69.5745 141.519 68.3218 141.079 66.5588 141.079H63.1488V156.041H67.5331ZM83.6295 114.286H91.2846V163H83.6295V114.286ZM106.969 163.696C103.258 163.696 100.451 162.652 98.5488 160.564C96.6466 158.43 95.6955 155.391 95.6955 151.448V148.664H102.933V152.004C102.933 155.159 104.255 156.737 106.9 156.737C108.199 156.737 109.173 156.366 109.823 155.623C110.519 154.835 110.867 153.582 110.867 151.865C110.867 149.824 110.403 148.038 109.475 146.507C108.547 144.929 106.83 143.05 104.325 140.87C101.17 138.086 98.9663 135.581 97.7137 133.354C96.461 131.081 95.8347 128.529 95.8347 125.699C95.8347 121.848 96.809 118.879 98.7576 116.791C100.706 114.657 103.536 113.59 107.248 113.59C110.913 113.59 113.673 114.657 115.529 116.791C117.431 118.879 118.382 121.894 118.382 125.838V127.856H111.145V125.351C111.145 123.681 110.82 122.474 110.171 121.732C109.521 120.943 108.57 120.549 107.317 120.549C104.766 120.549 103.49 122.103 103.49 125.212C103.49 126.975 103.954 128.622 104.882 130.153C105.856 131.684 107.596 133.539 110.101 135.72C113.302 138.504 115.506 141.032 116.712 143.306C117.919 145.579 118.522 148.247 118.522 151.309C118.522 155.299 117.524 158.361 115.529 160.495C113.581 162.629 110.727 163.696 106.969 163.696ZM128.896 121.245H120.893V114.286H144.554V121.245H136.551V163H128.896V121.245ZM159.406 114.286H170.332L175.203 149.151H175.342L180.214 114.286H191.14V163H183.902V126.116H183.763L178.196 163H171.793L166.226 126.116H166.087V163H159.406V114.286ZM207.987 163.696C204.275 163.696 201.445 162.652 199.497 160.564C197.548 158.43 196.574 155.391 196.574 151.448V114.286H204.229V152.004C204.229 153.675 204.554 154.881 205.203 155.623C205.899 156.366 206.873 156.737 208.126 156.737C209.379 156.737 210.33 156.366 210.979 155.623C211.675 154.881 212.023 153.675 212.023 152.004V114.286H219.4V151.448C219.4 155.391 218.426 158.43 216.477 160.564C214.528 162.652 211.698 163.696 207.987 163.696ZM234.804 163.696C231.092 163.696 228.285 162.652 226.383 160.564C224.481 158.43 223.53 155.391 223.53 151.448V148.664H230.767V152.004C230.767 155.159 232.09 156.737 234.734 156.737C236.033 156.737 237.007 156.366 237.657 155.623C238.353 154.835 238.701 153.582 238.701 151.865C238.701 149.824 238.237 148.038 237.309 146.507C236.381 144.929 234.664 143.05 232.159 140.87C229.004 138.086 226.801 135.581 225.548 133.354C224.295 131.081 223.669 128.529 223.669 125.699C223.669 121.848 224.643 118.879 226.592 116.791C228.54 114.657 231.37 113.59 235.082 113.59C238.747 113.59 241.508 114.657 243.363 116.791C245.266 118.879 246.217 121.894 246.217 125.838V127.856H238.979V125.351C238.979 123.681 238.654 122.474 238.005 121.732C237.355 120.943 236.404 120.549 235.152 120.549C232.6 120.549 231.324 122.103 231.324 125.212C231.324 126.975 231.788 128.622 232.716 130.153C233.69 131.684 235.43 133.539 237.935 135.72C241.136 138.504 243.34 141.032 244.546 143.306C245.753 145.579 246.356 148.247 246.356 151.309C246.356 155.299 245.358 158.361 243.363 160.495C241.415 162.629 238.562 163.696 234.804 163.696ZM250.745 114.286H271.623V121.245H258.4V134.119H268.909V141.079H258.4V156.041H271.623V163H250.745V114.286ZM287.161 163.696C283.45 163.696 280.62 162.652 278.671 160.564C276.722 158.43 275.748 155.391 275.748 151.448V114.286H283.403V152.004C283.403 153.675 283.728 154.881 284.377 155.623C285.073 156.366 286.048 156.737 287.3 156.737C288.553 156.737 289.504 156.366 290.154 155.623C290.85 154.881 291.197 153.675 291.197 152.004V114.286H298.574V151.448C298.574 155.391 297.6 158.43 295.651 160.564C293.703 162.652 290.873 163.696 287.161 163.696ZM304.026 114.286H314.952L319.824 149.151H319.963L324.834 114.286H335.76V163H328.523V126.116H328.383L322.816 163H316.414L310.846 126.116H310.707V163H304.026V114.286Z" fill="#F1F1F1"/>
<rect width="100" height="100" fill="#FF0E0D"/>
<path d="M50 85.059L14.825 85.059L17.371 93.233L13.954 94.506L8.192 83.518L8.192 79.431L50 79.431L50 85.059ZM50.67 51.291C50.67 53.3903 50.3797 55.311 49.799 57.053C49.1737 58.795 48.2133 60.3807 46.918 61.81L42.831 58.594L42.295 58.125L42.63 57.723C42.9873 57.6783 43.3223 57.5667 43.635 57.388C43.903 57.2093 44.2827 56.852 44.774 56.316C45.176 55.646 45.4887 54.9537 45.712 54.239C45.8907 53.4797 45.98 52.631 45.98 51.693C45.98 50.0403 45.511 48.6333 44.573 47.472C43.635 46.266 42.362 45.2833 40.754 44.524C39.146 43.7647 37.3147 43.184 35.26 42.782C33.2053 42.38 31.0613 42.179 28.828 42.179C25.076 42.179 22.0163 42.447 19.649 42.983C17.237 43.519 15.4727 44.3677 14.356 45.529C13.1947 46.6457 12.614 48.075 12.614 49.817C12.614 50.889 12.815 51.8717 13.217 52.765C13.619 53.6583 14.222 54.44 15.026 55.11C15.83 55.7353 16.7903 56.2267 17.907 56.584C19.0237 56.8967 20.2967 57.053 21.726 57.053C22.9767 57.053 24.1157 56.8743 25.143 56.517C26.1257 56.115 26.9743 55.579 27.689 54.909C28.359 54.239 28.8727 53.4797 29.23 52.631C29.5873 51.7377 29.766 50.7997 29.766 49.817C29.766 48.3877 29.6097 47.1593 29.297 46.132C28.9843 45.1047 28.4483 44.1667 27.689 43.318C26.9297 42.4247 25.9247 41.6207 24.674 40.906L30.034 40.437C30.9273 41.1963 31.709 42.045 32.379 42.983C33.049 43.921 33.585 44.993 33.987 46.199C34.3443 47.3603 34.523 48.6557 34.523 50.085C34.523 51.827 34.2327 53.4573 33.652 54.976C33.0267 56.4947 32.1557 57.8123 31.039 58.929C29.8777 60.0457 28.5153 60.9167 26.952 61.542C25.344 62.1227 23.5797 62.413 21.659 62.413C19.6937 62.413 17.8847 62.1003 16.232 61.475C14.5347 60.805 13.0607 59.9117 11.81 58.795C10.5593 57.6337 9.599 56.2937 8.929 54.775C8.21433 53.2563 7.857 51.626 7.857 49.884C7.857 47.1593 8.61633 44.8367 10.135 42.916C11.6537 40.9507 13.7753 39.4543 16.5 38.427C19.2247 37.3997 22.4407 36.886 26.148 36.886C31.5973 36.886 36.131 37.4667 39.749 38.628C43.367 39.7447 46.0917 41.375 47.923 43.519C49.7097 45.663 50.6253 48.2537 50.67 51.291Z" fill="#F1F1F1"/>
<path d="M59.387 25.235L70.334 11.582L71.236 13.878L60.289 27.408L59.387 25.235ZM65.25 32.451C63.528 32.451 62.052 31.9453 60.822 30.934C59.6193 29.9227 58.69 28.4467 58.034 26.506C57.378 24.538 57.05 22.16 57.05 19.372C57.05 16.6387 57.378 14.3017 58.034 12.361C58.69 10.393 59.6193 8.876 60.822 7.81C62.052 6.744 63.528 6.211 65.25 6.211C66.972 6.211 68.4343 6.744 69.637 7.81C70.867 8.876 71.81 10.393 72.466 12.361C73.122 14.3017 73.45 16.6387 73.45 19.372C73.45 22.16 73.122 24.538 72.466 26.506C71.81 28.4467 70.867 29.9227 69.637 30.934C68.4343 31.9453 66.972 32.451 65.25 32.451ZM65.25 29.622C66.2613 29.622 67.1223 29.2257 67.833 28.433C68.5437 27.6403 69.0903 26.4787 69.473 24.948C69.8557 23.4173 70.047 21.5587 70.047 19.372C70.047 17.2673 69.8557 15.4633 69.473 13.96C69.0903 12.4293 68.5437 11.2403 67.833 10.393C67.1223 9.54567 66.2613 9.122 65.25 9.122C64.2387 9.122 63.3777 9.54567 62.667 10.393C61.9563 11.2403 61.4097 12.4293 61.027 13.96C60.6443 15.4633 60.453 17.2673 60.453 19.372C60.453 21.5587 60.6443 23.4173 61.027 24.948C61.4097 26.4787 61.9563 27.6403 62.667 28.433C63.3777 29.2257 64.2387 29.622 65.25 29.622ZM81.445 32C82.2377 29.4307 83.044 26.9023 83.864 24.415C84.7113 21.9277 85.5723 19.454 86.447 16.994C87.349 14.534 88.2783 12.0603 89.235 9.573H78.534V6.457H93.376V8.384C92.6107 10.2973 91.8453 12.2243 91.08 14.165C90.342 16.1057 89.6313 18.06 88.948 20.028C88.2647 21.996 87.6087 23.9777 86.98 25.973C86.3787 27.941 85.7773 29.95 85.176 32H81.445Z" fill="#F1F1F1"/>
<rect x="236" width="100" height="100" fill="#FF0E0D"/>
<path d="M263 93.087L246.725 93.087L247.903 96.869L246.322 97.458L243.656 92.374L243.656 90.483L263 90.483L263 93.087ZM263.31 77.463C263.31 78.4343 263.176 79.323 262.907 80.129C262.618 80.935 262.173 81.6687 261.574 82.33L259.683 80.842L259.435 80.625L259.59 80.439C259.755 80.4183 259.91 80.3667 260.055 80.284C260.179 80.2013 260.355 80.036 260.582 79.788C260.768 79.478 260.913 79.1577 261.016 78.827C261.099 78.4757 261.14 78.083 261.14 77.649C261.14 76.8843 260.923 76.2333 260.489 75.696C260.055 75.138 259.466 74.6833 258.722 74.332C257.978 73.9807 257.131 73.712 256.18 73.526C255.229 73.34 254.237 73.247 253.204 73.247C251.468 73.247 250.052 73.371 248.957 73.619C247.841 73.867 247.025 74.2597 246.508 74.797C245.971 75.3137 245.702 75.975 245.702 76.781C245.702 77.277 245.795 77.7317 245.981 78.145C246.167 78.5583 246.446 78.92 246.818 79.23C247.19 79.5193 247.634 79.7467 248.151 79.912C248.668 80.0567 249.257 80.129 249.918 80.129C250.497 80.129 251.024 80.0463 251.499 79.881C251.954 79.695 252.346 79.447 252.677 79.137C252.987 78.827 253.225 78.4757 253.39 78.083C253.555 77.6697 253.638 77.2357 253.638 76.781C253.638 76.1197 253.566 75.5513 253.421 75.076C253.276 74.6007 253.028 74.1667 252.677 73.774C252.326 73.3607 251.861 72.9887 251.282 72.658L253.762 72.441C254.175 72.7923 254.537 73.185 254.847 73.619C255.157 74.053 255.405 74.549 255.591 75.107C255.756 75.6443 255.839 76.2437 255.839 76.905C255.839 77.711 255.705 78.4653 255.436 79.168C255.147 79.8707 254.744 80.4803 254.227 80.997C253.69 81.5137 253.059 81.9167 252.336 82.206C251.592 82.4747 250.776 82.609 249.887 82.609C248.978 82.609 248.141 82.4643 247.376 82.175C246.591 81.865 245.909 81.4517 245.33 80.935C244.751 80.3977 244.307 79.7777 243.997 79.075C243.666 78.3723 243.501 77.618 243.501 76.812C243.501 75.5513 243.852 74.4767 244.555 73.588C245.258 72.6787 246.239 71.9863 247.5 71.511C248.761 71.0357 250.249 70.798 251.964 70.798C254.485 70.798 256.583 71.0667 258.257 71.604C259.931 72.1207 261.192 72.875 262.039 73.867C262.866 74.859 263.289 76.0577 263.31 77.463Z" fill="#F1F1F1"/>
<path d="M250.63 47.15L274.66 17.18L276.64 22.22L252.61 51.92L250.63 47.15ZM263.5 62.99C259.72 62.99 256.48 61.88 253.78 59.66C251.14 57.44 249.1 54.2 247.66 49.94C246.22 45.62 245.5 40.4 245.5 34.28C245.5 28.28 246.22 23.15 247.66 18.89C249.1 14.57 251.14 11.24 253.78 8.9C256.48 6.56 259.72 5.39 263.5 5.39C267.28 5.39 270.49 6.56 273.13 8.9C275.83 11.24 277.9 14.57 279.34 18.89C280.78 23.15 281.5 28.28 281.5 34.28C281.5 40.4 280.78 45.62 279.34 49.94C277.9 54.2 275.83 57.44 273.13 59.66C270.49 61.88 267.28 62.99 263.5 62.99ZM263.5 56.78C265.72 56.78 267.61 55.91 269.17 54.17C270.73 52.43 271.93 49.88 272.77 46.52C273.61 43.16 274.03 39.08 274.03 34.28C274.03 29.66 273.61 25.7 272.77 22.4C271.93 19.04 270.73 16.43 269.17 14.57C267.61 12.71 265.72 11.78 263.5 11.78C261.28 11.78 259.39 12.71 257.83 14.57C256.27 16.43 255.07 19.04 254.23 22.4C253.39 25.7 252.97 29.66 252.97 34.28C252.97 39.08 253.39 43.16 254.23 46.52C255.07 49.88 256.27 52.43 257.83 54.17C259.39 55.91 261.28 56.78 263.5 56.78ZM299.05 62C300.79 56.36 302.56 50.81 304.36 45.35C306.22 39.89 308.11 34.46 310.03 29.06C312.01 23.66 314.05 18.23 316.15 12.77H292.66V5.93H325.24V10.16C323.56 14.36 321.88 18.59 320.2 22.85C318.58 27.11 317.02 31.4 315.52 35.72C314.02 40.04 312.58 44.39 311.2 48.77C309.88 53.09 308.56 57.5 307.24 62H299.05Z" fill="#F1F1F1"/>
<rect x="118" width="100" height="100" fill="#FF0E0D"/>
<path d="M148 57.195L129.625 57.195L130.955 61.465L129.17 62.13L126.16 56.39L126.16 54.255L148 54.255L148 57.195ZM148.35 39.555C148.35 40.6517 148.198 41.655 147.895 42.565C147.568 43.475 147.067 44.3033 146.39 45.05L144.255 43.37L143.975 43.125L144.15 42.915C144.337 42.8917 144.512 42.8333 144.675 42.74C144.815 42.6467 145.013 42.46 145.27 42.18C145.48 41.83 145.643 41.4683 145.76 41.095C145.853 40.6983 145.9 40.255 145.9 39.765C145.9 38.9017 145.655 38.1667 145.165 37.56C144.675 36.93 144.01 36.4167 143.17 36.02C142.33 35.6233 141.373 35.32 140.3 35.11C139.227 34.9 138.107 34.795 136.94 34.795C134.98 34.795 133.382 34.935 132.145 35.215C130.885 35.495 129.963 35.9383 129.38 36.545C128.773 37.1283 128.47 37.875 128.47 38.785C128.47 39.345 128.575 39.8583 128.785 40.325C128.995 40.7917 129.31 41.2 129.73 41.55C130.15 41.8767 130.652 42.1333 131.235 42.32C131.818 42.4833 132.483 42.565 133.23 42.565C133.883 42.565 134.478 42.4717 135.015 42.285C135.528 42.075 135.972 41.795 136.345 41.445C136.695 41.095 136.963 40.6983 137.15 40.255C137.337 39.7883 137.43 39.2983 137.43 38.785C137.43 38.0383 137.348 37.3967 137.185 36.86C137.022 36.3233 136.742 35.8333 136.345 35.39C135.948 34.9233 135.423 34.5033 134.77 34.13L137.57 33.885C138.037 34.2817 138.445 34.725 138.795 35.215C139.145 35.705 139.425 36.265 139.635 36.895C139.822 37.5017 139.915 38.1783 139.915 38.925C139.915 39.835 139.763 40.6867 139.46 41.48C139.133 42.2733 138.678 42.9617 138.095 43.545C137.488 44.1283 136.777 44.5833 135.96 44.91C135.12 45.2133 134.198 45.365 133.195 45.365C132.168 45.365 131.223 45.2017 130.36 44.875C129.473 44.525 128.703 44.0583 128.05 43.475C127.397 42.8683 126.895 42.1683 126.545 41.375C126.172 40.5817 125.985 39.73 125.985 38.82C125.985 37.3967 126.382 36.1833 127.175 35.18C127.968 34.1533 129.077 33.3717 130.5 32.835C131.923 32.2983 133.603 32.03 135.54 32.03C138.387 32.03 140.755 32.3333 142.645 32.94C144.535 33.5233 145.958 34.375 146.915 35.495C147.848 36.615 148.327 37.9683 148.35 39.555Z" fill="#F1F1F1"/>
<path d="M125.745 22.225L135.09 10.57L135.86 12.53L126.515 24.08L125.745 22.225ZM130.75 28.385C129.28 28.385 128.02 27.9533 126.97 27.09C125.943 26.2267 125.15 24.9667 124.59 23.31C124.03 21.63 123.75 19.6 123.75 17.22C123.75 14.8867 124.03 12.8917 124.59 11.235C125.15 9.555 125.943 8.26 126.97 7.35C128.02 6.44 129.28 5.985 130.75 5.985C132.22 5.985 133.468 6.44 134.495 7.35C135.545 8.26 136.35 9.555 136.91 11.235C137.47 12.8917 137.75 14.8867 137.75 17.22C137.75 19.6 137.47 21.63 136.91 23.31C136.35 24.9667 135.545 26.2267 134.495 27.09C133.468 27.9533 132.22 28.385 130.75 28.385ZM130.75 25.97C131.613 25.97 132.348 25.6317 132.955 24.955C133.562 24.2783 134.028 23.2867 134.355 21.98C134.682 20.6733 134.845 19.0867 134.845 17.22C134.845 15.4233 134.682 13.8833 134.355 12.6C134.028 11.2933 133.562 10.2783 132.955 9.555C132.348 8.83167 131.613 8.47 130.75 8.47C129.887 8.47 129.152 8.83167 128.545 9.555C127.938 10.2783 127.472 11.2933 127.145 12.6C126.818 13.8833 126.655 15.4233 126.655 17.22C126.655 19.0867 126.818 20.6733 127.145 21.98C127.472 23.2867 127.938 24.2783 128.545 24.955C129.152 25.6317 129.887 25.97 130.75 25.97ZM144.575 28C145.252 25.8067 145.94 23.6483 146.64 21.525C147.363 19.4017 148.098 17.29 148.845 15.19C149.615 13.09 150.408 10.9783 151.225 8.855H142.09V6.195H154.76V7.84C154.107 9.47333 153.453 11.1183 152.8 12.775C152.17 14.4317 151.563 16.1 150.98 17.78C150.397 19.46 149.837 21.1517 149.3 22.855C148.787 24.535 148.273 26.25 147.76 28H144.575Z" fill="#F1F1F1"/>
</g>
<defs>
<clipPath id="clip0_386_1851">
<rect width="336" height="164" fill="white"/>
</clipPath>
</defs>
</svg>
