<svg width="30" height="36" viewBox="0 0 30 36" fill="none" xmlns="http://www.w3.org/2000/svg">
<path d="M24.3631 8.9465L26.7848 6.52484L29.1414 8.8815L26.7198 11.3032C29.1127 14.2984 30.268 18.0963 29.9482 21.9167C29.6285 25.7372 27.8581 29.2902 25.0006 31.846C22.1431 34.4019 18.4154 35.7667 14.5831 35.66C10.7508 35.5533 7.10479 33.9833 4.39389 31.2724C1.683 28.5615 0.112987 24.9155 0.006303 21.0832C-0.100381 17.2509 1.26436 13.5232 3.82024 10.6657C6.37612 7.80818 9.92912 6.03776 13.7496 5.71804C17.57 5.39831 21.3678 6.55356 24.3631 8.9465ZM14.9998 32.3332C16.5319 32.3332 18.0489 32.0314 19.4644 31.4451C20.8799 30.8588 22.166 29.9994 23.2494 28.9161C24.3327 27.8327 25.1921 26.5466 25.7784 25.1311C26.3647 23.7157 26.6664 22.1986 26.6664 20.6665C26.6664 19.1344 26.3647 17.6173 25.7784 16.2019C25.1921 14.7864 24.3327 13.5003 23.2494 12.4169C22.166 11.3336 20.8799 10.4742 19.4644 9.88791C18.0489 9.3016 16.5319 8.99984 14.9998 8.99984C11.9056 8.99984 8.93812 10.229 6.75019 12.4169C4.56227 14.6048 3.33311 17.5723 3.33311 20.6665C3.33311 23.7607 4.56227 26.7282 6.75019 28.9161C8.93812 31.104 11.9056 32.3332 14.9998 32.3332ZM13.3331 12.3332H16.6664V22.3332H13.3331V12.3332ZM8.33311 0.666504H21.6664V3.99984H8.33311V0.666504Z" fill="#007C67"/>
</svg>
