<svg width="35" height="28" viewBox="0 0 35 28" fill="none" xmlns="http://www.w3.org/2000/svg">
<path d="M34.9365 3.42654C33.6641 3.98937 32.3148 4.359 30.9332 4.52321C32.3894 3.65227 33.4794 2.28157 33.9998 0.666544C32.6332 1.47988 31.1348 2.04988 29.5732 2.35821C28.5242 1.23584 27.1338 0.491483 25.6181 0.240852C24.1024 -0.00977847 22.5464 0.247363 21.192 0.972299C19.8375 1.69724 18.7605 2.84935 18.1284 4.24953C17.4962 5.64971 17.3444 7.21951 17.6965 8.71488C14.925 8.57597 12.2137 7.85575 9.73865 6.60098C7.26358 5.34622 5.08006 3.58496 3.32984 1.43154C2.71033 2.49563 2.38477 3.70525 2.38651 4.93654C2.38651 7.35321 3.61651 9.48821 5.48651 10.7382C4.37986 10.7034 3.29756 10.4045 2.32984 9.86654V9.95321C2.33018 11.5627 2.88713 13.1226 3.90626 14.3683C4.92539 15.614 6.34398 16.469 7.92151 16.7882C6.8942 17.0666 5.81702 17.1076 4.77151 16.9082C5.21629 18.2936 6.08319 19.5052 7.25083 20.3734C8.41847 21.2416 9.82839 21.7229 11.2832 21.7499C9.83731 22.8854 8.18181 23.7248 6.41131 24.2202C4.64082 24.7155 2.79006 24.857 0.964844 24.6365C4.15101 26.6856 7.86 27.7734 11.6482 27.7699C24.4698 27.7699 31.4815 17.1482 31.4815 7.93654C31.4815 7.63654 31.4732 7.33321 31.4598 7.03654C32.8246 6.05016 34.0025 4.82824 34.9382 3.42821L34.9365 3.42654Z" fill="#007C67"/>
</svg>
